<svg xmlns="http://www.w3.org/2000/svg" xmlns:xlink="http://www.w3.org/1999/xlink" width="637" zoomAndPan="magnify" viewBox="0 0 477.75 266.999984" height="356" preserveAspectRatio="xMidYMid meet" version="1.0"><defs><g/><clipPath id="76a8d4b15c"><path d="M 0 0.0703125 L 477.5 0.0703125 L 477.5 266.929688 L 0 266.929688 Z M 0 0.0703125 " clip-rule="nonzero"/></clipPath></defs><g clip-path="url(#76a8d4b15c)"><path fill="#ffffff" d="M 0 0.0703125 L 477.5 0.0703125 L 477.5 266.929688 L 0 266.929688 Z M 0 0.0703125 " fill-opacity="1" fill-rule="nonzero"/><path fill="#000000" d="M 0 0.0703125 L 477.5 0.0703125 L 477.5 266.929688 L 0 266.929688 Z M 0 0.0703125 " fill-opacity="1" fill-rule="nonzero"/></g><path fill="#bee6dc" d="M 186.820312 212.601562 C 183.546875 212.601562 180.226562 211.773438 177.179688 210.027344 C 167.847656 204.675781 164.605469 192.75 169.9375 183.386719 L 221.839844 92.273438 C 227.175781 82.910156 239.066406 79.660156 248.398438 85.007812 C 257.730469 90.359375 260.972656 102.285156 255.640625 111.648438 L 203.738281 202.761719 C 200.144531 209.066406 193.578125 212.601562 186.820312 212.601562 Z M 186.820312 212.601562 " fill-opacity="1" fill-rule="nonzero"/><path fill="#a7d3c7" d="M 252.398438 92.273438 C 249.097656 86.480469 243.28125 83.027344 237.121094 82.507812 C 230.957031 83.027344 225.144531 86.480469 221.84375 92.273438 L 216.039062 102.460938 C 216.113281 105.589844 216.941406 108.742188 218.597656 111.648438 L 237.121094 144.160156 L 255.640625 111.648438 C 257.296875 108.742188 258.125 105.589844 258.203125 102.460938 Z M 252.398438 92.273438 " fill-opacity="1" fill-rule="nonzero"/><path fill="#efd6b1" d="M 290.664062 212.601562 C 283.90625 212.601562 277.339844 209.066406 273.746094 202.761719 L 221.84375 111.648438 C 216.507812 102.285156 219.75 90.359375 229.085938 85.007812 C 238.417969 79.660156 250.308594 82.914062 255.640625 92.273438 L 307.542969 183.386719 C 312.875 192.75 309.632812 204.675781 300.300781 210.027344 C 297.253906 211.773438 293.9375 212.601562 290.664062 212.601562 Z M 290.664062 212.601562 " fill-opacity="1" fill-rule="nonzero"/><path fill="#ddc09b" d="M 310.039062 191.417969 C 309.808594 188.671875 308.996094 185.933594 307.542969 183.386719 L 302.300781 174.183594 C 299.050781 171.742188 295.015625 170.296875 290.644531 170.296875 L 255.25 170.296875 L 273.746094 202.761719 C 275.304688 205.5 277.425781 207.714844 279.878906 209.34375 L 290.644531 209.34375 C 300.855469 209.34375 309.226562 201.453125 310.039062 191.417969 Z M 310.039062 191.417969 " fill-opacity="1" fill-rule="nonzero"/><path fill="#b2b2cf" d="M 290.644531 173.550781 L 220.378906 173.550781 L 203.738281 202.761719 C 200.183594 209 193.714844 212.523438 187.035156 212.597656 L 290.644531 212.597656 C 301.394531 212.597656 310.109375 203.855469 310.109375 193.074219 C 310.109375 182.289062 301.394531 173.550781 290.644531 173.550781 Z M 290.644531 173.550781 " fill-opacity="1" fill-rule="nonzero"/><path fill="#9292b7" d="M 220.378906 173.550781 L 203.738281 202.761719 C 200.429688 208.5625 194.605469 212.015625 188.433594 212.53125 C 188.902344 212.570312 189.375 212.59375 189.84375 212.597656 L 190.277344 212.597656 C 196.960938 212.523438 203.425781 209 206.980469 202.761719 L 223.621094 173.550781 Z M 220.378906 173.550781 " fill-opacity="1" fill-rule="nonzero"/><path fill="#ffffff" d="M 311.472656 193.359375 C 311.679688 193.359375 311.859375 193.433594 312.003906 193.578125 C 312.148438 193.726562 312.222656 193.902344 312.222656 194.109375 C 312.222656 194.316406 312.148438 194.492188 312.003906 194.636719 C 311.859375 194.785156 311.679688 194.859375 311.472656 194.859375 C 311.265625 194.859375 311.089844 194.785156 310.945312 194.636719 C 310.796875 194.492188 310.722656 194.316406 310.722656 194.109375 C 310.722656 193.902344 310.796875 193.726562 310.945312 193.578125 C 311.089844 193.433594 311.265625 193.359375 311.472656 193.359375 Z M 314.472656 193.359375 C 314.679688 193.359375 314.855469 193.433594 315.003906 193.578125 C 315.148438 193.726562 315.222656 193.902344 315.222656 194.109375 C 315.222656 194.316406 315.148438 194.492188 315.003906 194.636719 C 314.855469 194.785156 314.679688 194.859375 314.472656 194.859375 C 314.265625 194.859375 314.089844 194.785156 313.941406 194.636719 C 313.796875 194.492188 313.722656 194.316406 313.722656 194.109375 C 313.722656 193.902344 313.796875 193.726562 313.941406 193.578125 C 314.089844 193.433594 314.265625 193.359375 314.472656 193.359375 Z M 317.472656 193.359375 C 317.679688 193.359375 317.855469 193.433594 318 193.578125 C 318.148438 193.726562 318.21875 193.902344 318.21875 194.109375 C 318.21875 194.316406 318.148438 194.492188 318 194.636719 C 317.855469 194.785156 317.679688 194.859375 317.472656 194.859375 C 317.265625 194.859375 317.085938 194.785156 316.941406 194.636719 C 316.792969 194.492188 316.722656 194.316406 316.722656 194.109375 C 316.722656 193.902344 316.792969 193.726562 316.941406 193.578125 C 317.085938 193.433594 317.265625 193.359375 317.472656 193.359375 Z M 320.46875 193.359375 C 320.675781 193.359375 320.851562 193.433594 321 193.578125 C 321.144531 193.726562 321.21875 193.902344 321.21875 194.109375 C 321.21875 194.316406 321.144531 194.492188 321 194.636719 C 320.851562 194.785156 320.675781 194.859375 320.46875 194.859375 C 320.261719 194.859375 320.085938 194.785156 319.941406 194.636719 C 319.792969 194.492188 319.71875 194.316406 319.71875 194.109375 C 319.71875 193.902344 319.792969 193.726562 319.941406 193.578125 C 320.085938 193.433594 320.261719 193.359375 320.46875 193.359375 Z M 323.46875 193.359375 C 323.675781 193.359375 323.851562 193.433594 324 193.578125 C 324.144531 193.726562 324.21875 193.902344 324.21875 194.109375 C 324.21875 194.316406 324.144531 194.492188 324 194.636719 C 323.851562 194.785156 323.675781 194.859375 323.46875 194.859375 C 323.261719 194.859375 323.085938 194.785156 322.9375 194.636719 C 322.792969 194.492188 322.71875 194.316406 322.71875 194.109375 C 322.71875 193.902344 322.792969 193.726562 322.9375 193.578125 C 323.085938 193.433594 323.261719 193.359375 323.46875 193.359375 Z M 326.464844 193.359375 L 326.46875 193.359375 C 326.671875 193.359375 326.851562 193.433594 326.996094 193.578125 C 327.144531 193.726562 327.214844 193.902344 327.214844 194.109375 C 327.214844 194.316406 327.144531 194.492188 326.996094 194.636719 C 326.851562 194.785156 326.671875 194.859375 326.46875 194.859375 L 326.464844 194.859375 C 326.257812 194.859375 326.082031 194.785156 325.9375 194.636719 C 325.789062 194.492188 325.71875 194.316406 325.71875 194.109375 C 325.71875 193.902344 325.789062 193.726562 325.9375 193.578125 C 326.082031 193.433594 326.257812 193.359375 326.464844 193.359375 Z M 329.464844 193.359375 C 329.671875 193.359375 329.847656 193.433594 329.996094 193.578125 C 330.140625 193.726562 330.214844 193.902344 330.214844 194.109375 C 330.214844 194.316406 330.140625 194.492188 329.996094 194.636719 C 329.847656 194.785156 329.671875 194.859375 329.464844 194.859375 C 329.257812 194.859375 329.082031 194.785156 328.933594 194.636719 C 328.789062 194.492188 328.714844 194.316406 328.714844 194.109375 C 328.714844 193.902344 328.789062 193.726562 328.933594 193.578125 C 329.082031 193.433594 329.257812 193.359375 329.464844 193.359375 Z M 332.464844 193.359375 C 332.671875 193.359375 332.847656 193.433594 332.992188 193.578125 C 333.140625 193.726562 333.214844 193.902344 333.214844 194.109375 C 333.214844 194.316406 333.140625 194.492188 332.992188 194.636719 C 332.847656 194.785156 332.671875 194.859375 332.464844 194.859375 C 332.257812 194.859375 332.082031 194.785156 331.933594 194.636719 C 331.789062 194.492188 331.714844 194.316406 331.714844 194.109375 C 331.714844 193.902344 331.789062 193.726562 331.933594 193.578125 C 332.082031 193.433594 332.257812 193.359375 332.464844 193.359375 Z M 335.460938 193.359375 C 335.667969 193.359375 335.847656 193.433594 335.992188 193.578125 C 336.140625 193.726562 336.210938 193.902344 336.210938 194.109375 C 336.210938 194.316406 336.140625 194.492188 335.992188 194.636719 C 335.847656 194.785156 335.667969 194.859375 335.460938 194.859375 C 335.253906 194.859375 335.078125 194.785156 334.933594 194.636719 C 334.785156 194.492188 334.710938 194.316406 334.710938 194.109375 C 334.710938 193.902344 334.785156 193.726562 334.933594 193.578125 C 335.078125 193.433594 335.253906 193.359375 335.460938 193.359375 Z M 338.460938 193.359375 C 338.667969 193.359375 338.84375 193.433594 338.992188 193.578125 C 339.136719 193.726562 339.210938 193.902344 339.210938 194.109375 C 339.210938 194.316406 339.136719 194.492188 338.992188 194.636719 C 338.84375 194.785156 338.667969 194.859375 338.460938 194.859375 C 338.253906 194.859375 338.078125 194.785156 337.929688 194.636719 C 337.785156 194.492188 337.710938 194.316406 337.710938 194.109375 C 337.710938 193.902344 337.785156 193.726562 337.929688 193.578125 C 338.078125 193.433594 338.253906 193.359375 338.460938 193.359375 Z M 341.460938 193.359375 C 341.667969 193.359375 341.84375 193.433594 341.988281 193.578125 C 342.136719 193.726562 342.210938 193.902344 342.210938 194.109375 C 342.210938 194.316406 342.136719 194.492188 341.988281 194.636719 C 341.84375 194.785156 341.667969 194.859375 341.460938 194.859375 C 341.253906 194.859375 341.074219 194.785156 340.929688 194.636719 C 340.78125 194.492188 340.710938 194.316406 340.710938 194.109375 C 340.710938 193.902344 340.78125 193.726562 340.929688 193.578125 C 341.074219 193.433594 341.253906 193.359375 341.460938 193.359375 Z M 344.457031 193.359375 C 344.664062 193.359375 344.84375 193.433594 344.988281 193.578125 C 345.132812 193.726562 345.207031 193.902344 345.207031 194.109375 C 345.207031 194.316406 345.132812 194.492188 344.988281 194.636719 C 344.84375 194.785156 344.664062 194.859375 344.457031 194.859375 C 344.25 194.859375 344.074219 194.785156 343.929688 194.636719 C 343.78125 194.492188 343.707031 194.316406 343.707031 194.109375 C 343.707031 193.902344 343.78125 193.726562 343.929688 193.578125 C 344.074219 193.433594 344.25 193.359375 344.457031 193.359375 Z M 347.457031 193.359375 C 347.664062 193.359375 347.839844 193.433594 347.988281 193.578125 C 348.132812 193.726562 348.207031 193.902344 348.207031 194.109375 C 348.207031 194.316406 348.132812 194.492188 347.988281 194.636719 C 347.839844 194.785156 347.664062 194.859375 347.457031 194.859375 C 347.25 194.859375 347.074219 194.785156 346.925781 194.636719 C 346.78125 194.492188 346.707031 194.316406 346.707031 194.109375 C 346.707031 193.902344 346.78125 193.726562 346.925781 193.578125 C 347.074219 193.433594 347.25 193.359375 347.457031 193.359375 Z M 350.457031 193.359375 C 350.664062 193.359375 350.839844 193.433594 350.984375 193.578125 C 351.132812 193.726562 351.207031 193.902344 351.207031 194.109375 C 351.207031 194.316406 351.132812 194.492188 350.984375 194.636719 C 350.839844 194.785156 350.664062 194.859375 350.457031 194.859375 C 350.25 194.859375 350.070312 194.785156 349.925781 194.636719 C 349.777344 194.492188 349.707031 194.316406 349.707031 194.109375 C 349.707031 193.902344 349.777344 193.726562 349.925781 193.578125 C 350.070312 193.433594 350.25 193.359375 350.457031 193.359375 Z M 353.453125 193.359375 C 353.660156 193.359375 353.835938 193.433594 353.984375 193.578125 C 354.128906 193.726562 354.203125 193.902344 354.203125 194.109375 C 354.203125 194.316406 354.128906 194.492188 353.984375 194.636719 C 353.835938 194.785156 353.660156 194.859375 353.453125 194.859375 C 353.246094 194.859375 353.070312 194.785156 352.925781 194.636719 C 352.777344 194.492188 352.703125 194.316406 352.703125 194.109375 C 352.703125 193.902344 352.777344 193.726562 352.925781 193.578125 C 353.070312 193.433594 353.246094 193.359375 353.453125 193.359375 Z M 356.453125 193.359375 C 356.660156 193.359375 356.835938 193.433594 356.984375 193.578125 C 357.128906 193.726562 357.203125 193.902344 357.203125 194.109375 C 357.203125 194.316406 357.128906 194.492188 356.984375 194.636719 C 356.835938 194.785156 356.660156 194.859375 356.453125 194.859375 C 356.246094 194.859375 356.070312 194.785156 355.921875 194.636719 C 355.777344 194.492188 355.703125 194.316406 355.703125 194.109375 C 355.703125 193.902344 355.777344 193.726562 355.921875 193.578125 C 356.070312 193.433594 356.246094 193.359375 356.453125 193.359375 Z M 359.449219 193.359375 L 359.453125 193.359375 C 359.660156 193.359375 359.835938 193.433594 359.980469 193.578125 C 360.128906 193.726562 360.199219 193.902344 360.199219 194.109375 C 360.199219 194.316406 360.128906 194.492188 359.980469 194.636719 C 359.835938 194.785156 359.660156 194.859375 359.453125 194.859375 L 359.449219 194.859375 C 359.242188 194.859375 359.066406 194.785156 358.921875 194.636719 C 358.773438 194.492188 358.703125 194.316406 358.703125 194.109375 C 358.703125 193.902344 358.773438 193.726562 358.921875 193.578125 C 359.066406 193.433594 359.242188 193.359375 359.449219 193.359375 Z M 362.449219 193.359375 C 362.65625 193.359375 362.832031 193.433594 362.980469 193.578125 C 363.125 193.726562 363.199219 193.902344 363.199219 194.109375 C 363.199219 194.316406 363.125 194.492188 362.980469 194.636719 C 362.832031 194.785156 362.65625 194.859375 362.449219 194.859375 C 362.242188 194.859375 362.066406 194.785156 361.917969 194.636719 C 361.773438 194.492188 361.699219 194.316406 361.699219 194.109375 C 361.699219 193.902344 361.773438 193.726562 361.917969 193.578125 C 362.066406 193.433594 362.242188 193.359375 362.449219 193.359375 Z M 365.449219 193.359375 C 365.65625 193.359375 365.832031 193.433594 365.976562 193.578125 C 366.125 193.726562 366.199219 193.902344 366.199219 194.109375 C 366.199219 194.316406 366.125 194.492188 365.976562 194.636719 C 365.832031 194.785156 365.65625 194.859375 365.449219 194.859375 C 365.242188 194.859375 365.066406 194.785156 364.917969 194.636719 C 364.773438 194.492188 364.699219 194.316406 364.699219 194.109375 C 364.699219 193.902344 364.773438 193.726562 364.917969 193.578125 C 365.066406 193.433594 365.242188 193.359375 365.449219 193.359375 Z M 368.445312 193.359375 C 368.652344 193.359375 368.832031 193.433594 368.976562 193.578125 C 369.125 193.726562 369.195312 193.902344 369.195312 194.109375 C 369.195312 194.316406 369.125 194.492188 368.976562 194.636719 C 368.832031 194.785156 368.652344 194.859375 368.445312 194.859375 C 368.238281 194.859375 368.0625 194.785156 367.917969 194.636719 C 367.769531 194.492188 367.695312 194.316406 367.695312 194.109375 C 367.695312 193.902344 367.769531 193.726562 367.917969 193.578125 C 368.0625 193.433594 368.238281 193.359375 368.445312 193.359375 Z M 371.445312 193.359375 C 371.652344 193.359375 371.828125 193.433594 371.976562 193.578125 C 372.121094 193.726562 372.195312 193.902344 372.195312 194.109375 C 372.195312 194.316406 372.121094 194.492188 371.976562 194.636719 C 371.828125 194.785156 371.652344 194.859375 371.445312 194.859375 C 371.238281 194.859375 371.0625 194.785156 370.914062 194.636719 C 370.769531 194.492188 370.695312 194.316406 370.695312 194.109375 C 370.695312 193.902344 370.769531 193.726562 370.914062 193.578125 C 371.0625 193.433594 371.238281 193.359375 371.445312 193.359375 Z M 374.445312 193.359375 C 374.652344 193.359375 374.828125 193.433594 374.972656 193.578125 C 375.121094 193.726562 375.195312 193.902344 375.195312 194.109375 C 375.195312 194.316406 375.121094 194.492188 374.972656 194.636719 C 374.828125 194.785156 374.652344 194.859375 374.445312 194.859375 C 374.238281 194.859375 374.058594 194.785156 373.914062 194.636719 C 373.765625 194.492188 373.695312 194.316406 373.695312 194.109375 C 373.695312 193.902344 373.765625 193.726562 373.914062 193.578125 C 374.058594 193.433594 374.238281 193.359375 374.445312 193.359375 Z M 377.441406 193.359375 C 377.648438 193.359375 377.828125 193.433594 377.972656 193.578125 C 378.117188 193.726562 378.191406 193.902344 378.191406 194.109375 C 378.191406 194.316406 378.117188 194.492188 377.972656 194.636719 C 377.828125 194.785156 377.648438 194.859375 377.441406 194.859375 C 377.234375 194.859375 377.058594 194.785156 376.914062 194.636719 C 376.765625 194.492188 376.691406 194.316406 376.691406 194.109375 C 376.691406 193.902344 376.765625 193.726562 376.914062 193.578125 C 377.058594 193.433594 377.234375 193.359375 377.441406 193.359375 Z M 380.441406 193.359375 C 380.648438 193.359375 380.824219 193.433594 380.972656 193.578125 C 381.117188 193.726562 381.191406 193.902344 381.191406 194.109375 C 381.191406 194.316406 381.117188 194.492188 380.972656 194.636719 C 380.824219 194.785156 380.648438 194.859375 380.441406 194.859375 C 380.234375 194.859375 380.058594 194.785156 379.910156 194.636719 C 379.765625 194.492188 379.691406 194.316406 379.691406 194.109375 C 379.691406 193.902344 379.765625 193.726562 379.910156 193.578125 C 380.058594 193.433594 380.234375 193.359375 380.441406 193.359375 Z M 383.441406 193.359375 C 383.648438 193.359375 383.824219 193.433594 383.96875 193.578125 C 384.117188 193.726562 384.191406 193.902344 384.191406 194.109375 C 384.191406 194.316406 384.117188 194.492188 383.96875 194.636719 C 383.824219 194.785156 383.648438 194.859375 383.441406 194.859375 C 383.234375 194.859375 383.054688 194.785156 382.910156 194.636719 C 382.761719 194.492188 382.691406 194.316406 382.691406 194.109375 C 382.691406 193.902344 382.761719 193.726562 382.910156 193.578125 C 383.054688 193.433594 383.234375 193.359375 383.441406 193.359375 Z M 386.4375 193.359375 C 386.644531 193.359375 386.820312 193.433594 386.96875 193.578125 C 387.113281 193.726562 387.1875 193.902344 387.1875 194.109375 C 387.1875 194.316406 387.113281 194.492188 386.96875 194.636719 C 386.820312 194.785156 386.644531 194.859375 386.4375 194.859375 C 386.230469 194.859375 386.054688 194.785156 385.910156 194.636719 C 385.761719 194.492188 385.6875 194.316406 385.6875 194.109375 C 385.6875 193.902344 385.761719 193.726562 385.910156 193.578125 C 386.054688 193.433594 386.230469 193.359375 386.4375 193.359375 Z M 389.4375 193.359375 C 389.644531 193.359375 389.820312 193.433594 389.96875 193.578125 C 390.113281 193.726562 390.1875 193.902344 390.1875 194.109375 C 390.1875 194.316406 390.113281 194.492188 389.96875 194.636719 C 389.820312 194.785156 389.644531 194.859375 389.4375 194.859375 C 389.230469 194.859375 389.054688 194.785156 388.90625 194.636719 C 388.761719 194.492188 388.6875 194.316406 388.6875 194.109375 C 388.6875 193.902344 388.761719 193.726562 388.90625 193.578125 C 389.054688 193.433594 389.230469 193.359375 389.4375 193.359375 Z M 392.433594 193.359375 L 392.4375 193.359375 C 392.644531 193.359375 392.820312 193.433594 392.964844 193.578125 C 393.113281 193.726562 393.183594 193.902344 393.183594 194.109375 C 393.183594 194.316406 393.113281 194.492188 392.964844 194.636719 C 392.820312 194.785156 392.644531 194.859375 392.4375 194.859375 L 392.433594 194.859375 C 392.226562 194.859375 392.050781 194.785156 391.90625 194.636719 C 391.757812 194.492188 391.6875 194.316406 391.6875 194.109375 C 391.6875 193.902344 391.757812 193.726562 391.90625 193.578125 C 392.050781 193.433594 392.226562 193.359375 392.433594 193.359375 Z M 395.433594 193.359375 C 395.640625 193.359375 395.816406 193.433594 395.964844 193.578125 C 396.109375 193.726562 396.183594 193.902344 396.183594 194.109375 C 396.183594 194.316406 396.109375 194.492188 395.964844 194.636719 C 395.816406 194.785156 395.640625 194.859375 395.433594 194.859375 C 395.226562 194.859375 395.050781 194.785156 394.902344 194.636719 C 394.757812 194.492188 394.683594 194.316406 394.683594 194.109375 C 394.683594 193.902344 394.757812 193.726562 394.902344 193.578125 C 395.050781 193.433594 395.226562 193.359375 395.433594 193.359375 Z M 398.433594 193.359375 C 398.640625 193.359375 398.816406 193.433594 398.960938 193.578125 C 399.109375 193.726562 399.183594 193.902344 399.183594 194.109375 C 399.183594 194.316406 399.109375 194.492188 398.960938 194.636719 C 398.816406 194.785156 398.640625 194.859375 398.433594 194.859375 C 398.226562 194.859375 398.050781 194.785156 397.902344 194.636719 C 397.757812 194.492188 397.683594 194.316406 397.683594 194.109375 C 397.683594 193.902344 397.757812 193.726562 397.902344 193.578125 C 398.050781 193.433594 398.226562 193.359375 398.433594 193.359375 Z M 401.429688 193.359375 C 401.636719 193.359375 401.816406 193.433594 401.960938 193.578125 C 402.109375 193.726562 402.179688 193.902344 402.179688 194.109375 C 402.179688 194.316406 402.109375 194.492188 401.960938 194.636719 C 401.816406 194.785156 401.636719 194.859375 401.429688 194.859375 C 401.222656 194.859375 401.046875 194.785156 400.902344 194.636719 C 400.753906 194.492188 400.679688 194.316406 400.679688 194.109375 C 400.679688 193.902344 400.753906 193.726562 400.902344 193.578125 C 401.046875 193.433594 401.222656 193.359375 401.429688 193.359375 Z M 401.429688 193.359375 " fill-opacity="1" fill-rule="nonzero"/><path fill="#ffffff" d="M 405.054688 157.691406 C 405.054688 157.898438 404.984375 158.074219 404.835938 158.21875 C 404.691406 158.367188 404.511719 158.441406 404.308594 158.441406 C 404.101562 158.441406 403.921875 158.367188 403.777344 158.21875 C 403.628906 158.074219 403.558594 157.898438 403.558594 157.691406 C 403.558594 157.484375 403.628906 157.304688 403.777344 157.160156 C 403.921875 157.015625 404.101562 156.941406 404.308594 156.941406 C 404.511719 156.941406 404.691406 157.015625 404.835938 157.160156 C 404.984375 157.304688 405.054688 157.484375 405.054688 157.691406 Z M 405.054688 160.6875 C 405.054688 160.894531 404.984375 161.074219 404.835938 161.21875 C 404.691406 161.367188 404.511719 161.4375 404.308594 161.4375 C 404.101562 161.4375 403.921875 161.367188 403.777344 161.21875 C 403.628906 161.074219 403.558594 160.894531 403.558594 160.6875 C 403.558594 160.480469 403.628906 160.304688 403.777344 160.160156 C 403.921875 160.011719 404.101562 159.9375 404.308594 159.9375 C 404.511719 159.9375 404.691406 160.011719 404.835938 160.160156 C 404.984375 160.304688 405.054688 160.480469 405.054688 160.6875 Z M 405.054688 163.6875 C 405.054688 163.894531 404.984375 164.070312 404.835938 164.21875 C 404.691406 164.363281 404.511719 164.4375 404.308594 164.4375 C 404.101562 164.4375 403.921875 164.363281 403.777344 164.21875 C 403.628906 164.070312 403.558594 163.894531 403.558594 163.6875 C 403.558594 163.480469 403.628906 163.304688 403.777344 163.15625 C 403.921875 163.011719 404.101562 162.9375 404.308594 162.9375 C 404.511719 162.9375 404.691406 163.011719 404.835938 163.15625 C 404.984375 163.304688 405.054688 163.480469 405.054688 163.6875 Z M 405.054688 166.6875 C 405.054688 166.894531 404.984375 167.070312 404.835938 167.214844 C 404.691406 167.363281 404.511719 167.4375 404.308594 167.4375 C 404.101562 167.4375 403.921875 167.363281 403.777344 167.214844 C 403.628906 167.070312 403.558594 166.894531 403.558594 166.6875 C 403.558594 166.480469 403.628906 166.300781 403.777344 166.15625 C 403.921875 166.007812 404.101562 165.9375 404.308594 165.9375 C 404.511719 165.9375 404.691406 166.007812 404.835938 166.15625 C 404.984375 166.300781 405.054688 166.480469 405.054688 166.6875 Z M 405.054688 169.683594 C 405.054688 169.890625 404.984375 170.066406 404.835938 170.214844 C 404.691406 170.359375 404.511719 170.433594 404.308594 170.433594 C 404.101562 170.433594 403.921875 170.359375 403.777344 170.214844 C 403.628906 170.066406 403.558594 169.890625 403.558594 169.683594 C 403.558594 169.476562 403.628906 169.300781 403.777344 169.15625 C 403.921875 169.007812 404.101562 168.933594 404.308594 168.933594 C 404.511719 168.933594 404.691406 169.007812 404.835938 169.15625 C 404.984375 169.300781 405.054688 169.476562 405.054688 169.683594 Z M 405.054688 172.683594 C 405.054688 172.890625 404.984375 173.066406 404.835938 173.214844 C 404.691406 173.359375 404.511719 173.433594 404.308594 173.433594 C 404.101562 173.433594 403.921875 173.359375 403.777344 173.214844 C 403.628906 173.066406 403.558594 172.890625 403.558594 172.683594 C 403.558594 172.476562 403.628906 172.300781 403.777344 172.152344 C 403.921875 172.007812 404.101562 171.933594 404.308594 171.933594 C 404.511719 171.933594 404.691406 172.007812 404.835938 172.152344 C 404.984375 172.300781 405.054688 172.476562 405.054688 172.683594 Z M 405.054688 175.679688 L 405.054688 175.683594 C 405.054688 175.890625 404.984375 176.066406 404.835938 176.210938 C 404.691406 176.359375 404.511719 176.429688 404.308594 176.429688 C 404.101562 176.429688 403.921875 176.359375 403.777344 176.210938 C 403.628906 176.066406 403.558594 175.890625 403.558594 175.683594 L 403.558594 175.679688 C 403.558594 175.472656 403.628906 175.296875 403.777344 175.152344 C 403.921875 175.003906 404.101562 174.933594 404.308594 174.933594 C 404.511719 174.933594 404.691406 175.003906 404.835938 175.152344 C 404.984375 175.296875 405.054688 175.472656 405.054688 175.679688 Z M 405.054688 178.679688 C 405.054688 178.886719 404.984375 179.0625 404.835938 179.210938 C 404.691406 179.355469 404.511719 179.429688 404.308594 179.429688 C 404.101562 179.429688 403.921875 179.355469 403.777344 179.210938 C 403.628906 179.0625 403.558594 178.886719 403.558594 178.679688 C 403.558594 178.472656 403.628906 178.296875 403.777344 178.148438 C 403.921875 178.003906 404.101562 177.929688 404.308594 177.929688 C 404.511719 177.929688 404.691406 178.003906 404.835938 178.148438 C 404.984375 178.296875 405.054688 178.472656 405.054688 178.679688 Z M 405.054688 181.679688 C 405.054688 181.886719 404.984375 182.0625 404.835938 182.207031 C 404.691406 182.355469 404.511719 182.429688 404.308594 182.429688 C 404.101562 182.429688 403.921875 182.355469 403.777344 182.207031 C 403.628906 182.0625 403.558594 181.886719 403.558594 181.679688 C 403.558594 181.472656 403.628906 181.296875 403.777344 181.148438 C 403.921875 181.003906 404.101562 180.929688 404.308594 180.929688 C 404.511719 180.929688 404.691406 181.003906 404.835938 181.148438 C 404.984375 181.296875 405.054688 181.472656 405.054688 181.679688 Z M 405.054688 184.675781 C 405.054688 184.882812 404.984375 185.0625 404.835938 185.207031 C 404.691406 185.355469 404.511719 185.425781 404.308594 185.425781 C 404.101562 185.425781 403.921875 185.355469 403.777344 185.207031 C 403.628906 185.0625 403.558594 184.882812 403.558594 184.675781 C 403.558594 184.46875 403.628906 184.292969 403.777344 184.148438 C 403.921875 184 404.101562 183.925781 404.308594 183.925781 C 404.511719 183.925781 404.691406 184 404.835938 184.148438 C 404.984375 184.292969 405.054688 184.46875 405.054688 184.675781 Z M 405.054688 187.675781 C 405.054688 187.882812 404.984375 188.058594 404.835938 188.207031 C 404.691406 188.351562 404.511719 188.425781 404.308594 188.425781 C 404.101562 188.425781 403.921875 188.351562 403.777344 188.207031 C 403.628906 188.058594 403.558594 187.882812 403.558594 187.675781 C 403.558594 187.46875 403.628906 187.292969 403.777344 187.144531 C 403.921875 187 404.101562 186.925781 404.308594 186.925781 C 404.511719 186.925781 404.691406 187 404.835938 187.144531 C 404.984375 187.292969 405.054688 187.46875 405.054688 187.675781 Z M 405.054688 190.675781 C 405.054688 190.882812 404.984375 191.058594 404.835938 191.203125 C 404.691406 191.351562 404.511719 191.425781 404.308594 191.425781 C 404.101562 191.425781 403.921875 191.351562 403.777344 191.203125 C 403.628906 191.058594 403.558594 190.882812 403.558594 190.675781 C 403.558594 190.46875 403.628906 190.289062 403.777344 190.144531 C 403.921875 190 404.101562 189.925781 404.308594 189.925781 C 404.511719 189.925781 404.691406 190 404.835938 190.144531 C 404.984375 190.289062 405.054688 190.46875 405.054688 190.675781 Z M 405.054688 193.671875 C 405.054688 193.878906 404.984375 194.058594 404.835938 194.203125 C 404.691406 194.351562 404.511719 194.421875 404.308594 194.421875 C 404.101562 194.421875 403.921875 194.351562 403.777344 194.203125 C 403.628906 194.058594 403.558594 193.878906 403.558594 193.671875 C 403.558594 193.464844 403.628906 193.289062 403.777344 193.144531 C 403.921875 192.996094 404.101562 192.921875 404.308594 192.921875 C 404.511719 192.921875 404.691406 192.996094 404.835938 193.144531 C 404.984375 193.289062 405.054688 193.464844 405.054688 193.671875 Z M 405.054688 193.671875 " fill-opacity="1" fill-rule="nonzero"/><path fill="#ffffff" d="M 72.839844 194.601562 C 73.046875 194.601562 73.226562 194.671875 73.371094 194.820312 C 73.519531 194.964844 73.589844 195.140625 73.589844 195.347656 C 73.589844 195.554688 73.519531 195.734375 73.371094 195.878906 C 73.226562 196.027344 73.046875 196.097656 72.839844 196.097656 C 72.632812 196.097656 72.457031 196.027344 72.3125 195.878906 C 72.164062 195.734375 72.09375 195.554688 72.09375 195.347656 C 72.09375 195.140625 72.164062 194.964844 72.3125 194.820312 C 72.457031 194.671875 72.632812 194.601562 72.839844 194.601562 Z M 75.839844 194.601562 C 76.046875 194.601562 76.222656 194.671875 76.371094 194.820312 C 76.515625 194.964844 76.589844 195.140625 76.589844 195.347656 C 76.589844 195.554688 76.515625 195.734375 76.371094 195.878906 C 76.222656 196.027344 76.046875 196.097656 75.839844 196.097656 C 75.632812 196.097656 75.457031 196.027344 75.308594 195.878906 C 75.164062 195.734375 75.089844 195.554688 75.089844 195.347656 C 75.089844 195.140625 75.164062 194.964844 75.308594 194.820312 C 75.457031 194.671875 75.632812 194.601562 75.839844 194.601562 Z M 78.839844 194.601562 C 79.046875 194.601562 79.222656 194.671875 79.367188 194.820312 C 79.515625 194.964844 79.589844 195.140625 79.589844 195.347656 C 79.589844 195.554688 79.515625 195.734375 79.367188 195.878906 C 79.222656 196.027344 79.046875 196.097656 78.839844 196.097656 C 78.632812 196.097656 78.453125 196.027344 78.308594 195.878906 C 78.164062 195.734375 78.089844 195.554688 78.089844 195.347656 C 78.089844 195.140625 78.164062 194.964844 78.308594 194.820312 C 78.453125 194.671875 78.632812 194.601562 78.839844 194.601562 Z M 81.835938 194.601562 C 82.042969 194.601562 82.222656 194.671875 82.367188 194.820312 C 82.515625 194.964844 82.585938 195.140625 82.585938 195.347656 C 82.585938 195.554688 82.515625 195.734375 82.367188 195.878906 C 82.222656 196.027344 82.042969 196.097656 81.835938 196.097656 C 81.628906 196.097656 81.453125 196.027344 81.308594 195.878906 C 81.160156 195.734375 81.085938 195.554688 81.085938 195.347656 C 81.085938 195.140625 81.160156 194.964844 81.308594 194.820312 C 81.453125 194.671875 81.628906 194.601562 81.835938 194.601562 Z M 84.835938 194.601562 C 85.042969 194.601562 85.21875 194.671875 85.367188 194.820312 C 85.511719 194.964844 85.585938 195.140625 85.585938 195.347656 C 85.585938 195.554688 85.511719 195.734375 85.367188 195.878906 C 85.21875 196.027344 85.042969 196.097656 84.835938 196.097656 C 84.628906 196.097656 84.453125 196.027344 84.304688 195.878906 C 84.160156 195.734375 84.085938 195.554688 84.085938 195.347656 C 84.085938 195.140625 84.160156 194.964844 84.304688 194.820312 C 84.453125 194.671875 84.628906 194.601562 84.835938 194.601562 Z M 87.835938 194.601562 C 88.042969 194.601562 88.21875 194.671875 88.363281 194.820312 C 88.511719 194.964844 88.585938 195.140625 88.585938 195.347656 C 88.585938 195.554688 88.511719 195.734375 88.363281 195.878906 C 88.21875 196.027344 88.042969 196.097656 87.835938 196.097656 C 87.628906 196.097656 87.449219 196.027344 87.304688 195.878906 C 87.15625 195.734375 87.085938 195.554688 87.085938 195.347656 C 87.085938 195.140625 87.15625 194.964844 87.304688 194.820312 C 87.449219 194.671875 87.628906 194.601562 87.835938 194.601562 Z M 90.832031 194.601562 C 91.039062 194.601562 91.21875 194.671875 91.363281 194.820312 C 91.507812 194.964844 91.582031 195.140625 91.582031 195.347656 C 91.582031 195.554688 91.507812 195.734375 91.363281 195.878906 C 91.21875 196.027344 91.039062 196.097656 90.832031 196.097656 C 90.625 196.097656 90.449219 196.027344 90.304688 195.878906 C 90.15625 195.734375 90.082031 195.554688 90.082031 195.347656 C 90.082031 195.140625 90.15625 194.964844 90.304688 194.820312 C 90.449219 194.671875 90.625 194.601562 90.832031 194.601562 Z M 93.832031 194.601562 C 94.039062 194.601562 94.214844 194.671875 94.363281 194.820312 C 94.507812 194.964844 94.582031 195.140625 94.582031 195.347656 C 94.582031 195.554688 94.507812 195.734375 94.363281 195.878906 C 94.214844 196.027344 94.039062 196.097656 93.832031 196.097656 C 93.625 196.097656 93.449219 196.027344 93.300781 195.878906 C 93.15625 195.734375 93.082031 195.554688 93.082031 195.347656 C 93.082031 195.140625 93.15625 194.964844 93.300781 194.820312 C 93.449219 194.671875 93.625 194.601562 93.832031 194.601562 Z M 96.832031 194.601562 C 97.039062 194.601562 97.214844 194.671875 97.359375 194.820312 C 97.507812 194.964844 97.578125 195.140625 97.578125 195.347656 C 97.578125 195.554688 97.507812 195.734375 97.359375 195.878906 C 97.214844 196.027344 97.039062 196.097656 96.832031 196.097656 C 96.625 196.097656 96.445312 196.027344 96.300781 195.878906 C 96.152344 195.734375 96.082031 195.554688 96.082031 195.347656 C 96.082031 195.140625 96.152344 194.964844 96.300781 194.820312 C 96.445312 194.671875 96.625 194.601562 96.832031 194.601562 Z M 99.828125 194.601562 C 100.035156 194.601562 100.210938 194.671875 100.359375 194.820312 C 100.503906 194.964844 100.578125 195.140625 100.578125 195.347656 C 100.578125 195.554688 100.503906 195.734375 100.359375 195.878906 C 100.210938 196.027344 100.035156 196.097656 99.828125 196.097656 C 99.621094 196.097656 99.445312 196.027344 99.296875 195.878906 C 99.152344 195.734375 99.078125 195.554688 99.078125 195.347656 C 99.078125 195.140625 99.152344 194.964844 99.296875 194.820312 C 99.445312 194.671875 99.621094 194.601562 99.828125 194.601562 Z M 102.828125 194.601562 C 103.035156 194.601562 103.210938 194.671875 103.359375 194.820312 C 103.503906 194.964844 103.578125 195.140625 103.578125 195.347656 C 103.578125 195.554688 103.503906 195.734375 103.359375 195.878906 C 103.210938 196.027344 103.035156 196.097656 102.828125 196.097656 C 102.621094 196.097656 102.445312 196.027344 102.296875 195.878906 C 102.152344 195.734375 102.078125 195.554688 102.078125 195.347656 C 102.078125 195.140625 102.152344 194.964844 102.296875 194.820312 C 102.445312 194.671875 102.621094 194.601562 102.828125 194.601562 Z M 105.824219 194.601562 C 106.03125 194.601562 106.210938 194.671875 106.355469 194.820312 C 106.503906 194.964844 106.574219 195.140625 106.574219 195.347656 C 106.574219 195.554688 106.503906 195.734375 106.355469 195.878906 C 106.210938 196.027344 106.03125 196.097656 105.824219 196.097656 C 105.617188 196.097656 105.441406 196.027344 105.296875 195.878906 C 105.148438 195.734375 105.078125 195.554688 105.078125 195.347656 C 105.078125 195.140625 105.148438 194.964844 105.296875 194.820312 C 105.441406 194.671875 105.617188 194.601562 105.824219 194.601562 Z M 108.824219 194.601562 C 109.03125 194.601562 109.207031 194.671875 109.355469 194.820312 C 109.5 194.964844 109.574219 195.140625 109.574219 195.347656 C 109.574219 195.554688 109.5 195.734375 109.355469 195.878906 C 109.207031 196.027344 109.03125 196.097656 108.824219 196.097656 C 108.617188 196.097656 108.441406 196.027344 108.292969 195.878906 C 108.148438 195.734375 108.074219 195.554688 108.074219 195.347656 C 108.074219 195.140625 108.148438 194.964844 108.292969 194.820312 C 108.441406 194.671875 108.617188 194.601562 108.824219 194.601562 Z M 111.824219 194.601562 C 112.03125 194.601562 112.207031 194.671875 112.351562 194.820312 C 112.5 194.964844 112.574219 195.140625 112.574219 195.347656 C 112.574219 195.554688 112.5 195.734375 112.351562 195.878906 C 112.207031 196.027344 112.03125 196.097656 111.824219 196.097656 C 111.617188 196.097656 111.4375 196.027344 111.292969 195.878906 C 111.148438 195.734375 111.074219 195.554688 111.074219 195.347656 C 111.074219 195.140625 111.148438 194.964844 111.292969 194.820312 C 111.4375 194.671875 111.617188 194.601562 111.824219 194.601562 Z M 114.820312 194.601562 C 115.027344 194.601562 115.207031 194.671875 115.351562 194.820312 C 115.5 194.964844 115.570312 195.140625 115.570312 195.347656 C 115.570312 195.554688 115.5 195.734375 115.351562 195.878906 C 115.207031 196.027344 115.027344 196.097656 114.820312 196.097656 C 114.613281 196.097656 114.4375 196.027344 114.292969 195.878906 C 114.144531 195.734375 114.070312 195.554688 114.070312 195.347656 C 114.070312 195.140625 114.144531 194.964844 114.292969 194.820312 C 114.4375 194.671875 114.613281 194.601562 114.820312 194.601562 Z M 117.820312 194.601562 C 118.027344 194.601562 118.203125 194.671875 118.351562 194.820312 C 118.496094 194.964844 118.570312 195.140625 118.570312 195.347656 C 118.570312 195.554688 118.496094 195.734375 118.351562 195.878906 C 118.203125 196.027344 118.027344 196.097656 117.820312 196.097656 C 117.613281 196.097656 117.4375 196.027344 117.289062 195.878906 C 117.144531 195.734375 117.070312 195.554688 117.070312 195.347656 C 117.070312 195.140625 117.144531 194.964844 117.289062 194.820312 C 117.4375 194.671875 117.613281 194.601562 117.820312 194.601562 Z M 120.820312 194.601562 C 121.027344 194.601562 121.203125 194.671875 121.347656 194.820312 C 121.496094 194.964844 121.570312 195.140625 121.570312 195.347656 C 121.570312 195.554688 121.496094 195.734375 121.347656 195.878906 C 121.203125 196.027344 121.027344 196.097656 120.820312 196.097656 C 120.613281 196.097656 120.433594 196.027344 120.289062 195.878906 C 120.140625 195.734375 120.070312 195.554688 120.070312 195.347656 C 120.070312 195.140625 120.140625 194.964844 120.289062 194.820312 C 120.433594 194.671875 120.613281 194.601562 120.820312 194.601562 Z M 123.816406 194.601562 C 124.023438 194.601562 124.203125 194.671875 124.347656 194.820312 C 124.492188 194.964844 124.566406 195.140625 124.566406 195.347656 C 124.566406 195.554688 124.492188 195.734375 124.347656 195.878906 C 124.203125 196.027344 124.023438 196.097656 123.816406 196.097656 C 123.609375 196.097656 123.433594 196.027344 123.289062 195.878906 C 123.140625 195.734375 123.066406 195.554688 123.066406 195.347656 C 123.066406 195.140625 123.140625 194.964844 123.289062 194.820312 C 123.433594 194.671875 123.609375 194.601562 123.816406 194.601562 Z M 126.816406 194.601562 C 127.023438 194.601562 127.199219 194.671875 127.347656 194.820312 C 127.492188 194.964844 127.566406 195.140625 127.566406 195.347656 C 127.566406 195.554688 127.492188 195.734375 127.347656 195.878906 C 127.199219 196.027344 127.023438 196.097656 126.816406 196.097656 C 126.609375 196.097656 126.433594 196.027344 126.285156 195.878906 C 126.140625 195.734375 126.066406 195.554688 126.066406 195.347656 C 126.066406 195.140625 126.140625 194.964844 126.285156 194.820312 C 126.433594 194.671875 126.609375 194.601562 126.816406 194.601562 Z M 129.816406 194.601562 C 130.023438 194.601562 130.199219 194.671875 130.34375 194.820312 C 130.492188 194.964844 130.5625 195.140625 130.5625 195.347656 C 130.5625 195.554688 130.492188 195.734375 130.34375 195.878906 C 130.199219 196.027344 130.023438 196.097656 129.816406 196.097656 C 129.609375 196.097656 129.429688 196.027344 129.285156 195.878906 C 129.136719 195.734375 129.066406 195.554688 129.066406 195.347656 C 129.066406 195.140625 129.136719 194.964844 129.285156 194.820312 C 129.429688 194.671875 129.609375 194.601562 129.816406 194.601562 Z M 132.8125 194.601562 C 133.019531 194.601562 133.195312 194.671875 133.34375 194.820312 C 133.488281 194.964844 133.5625 195.140625 133.5625 195.347656 C 133.5625 195.554688 133.488281 195.734375 133.34375 195.878906 C 133.195312 196.027344 133.019531 196.097656 132.8125 196.097656 C 132.605469 196.097656 132.429688 196.027344 132.28125 195.878906 C 132.136719 195.734375 132.0625 195.554688 132.0625 195.347656 C 132.0625 195.140625 132.136719 194.964844 132.28125 194.820312 C 132.429688 194.671875 132.605469 194.601562 132.8125 194.601562 Z M 135.8125 194.601562 C 136.019531 194.601562 136.195312 194.671875 136.34375 194.820312 C 136.488281 194.964844 136.5625 195.140625 136.5625 195.347656 C 136.5625 195.554688 136.488281 195.734375 136.34375 195.878906 C 136.195312 196.027344 136.019531 196.097656 135.8125 196.097656 C 135.605469 196.097656 135.429688 196.027344 135.28125 195.878906 C 135.136719 195.734375 135.0625 195.554688 135.0625 195.347656 C 135.0625 195.140625 135.136719 194.964844 135.28125 194.820312 C 135.429688 194.671875 135.605469 194.601562 135.8125 194.601562 Z M 138.808594 194.601562 C 139.015625 194.601562 139.195312 194.671875 139.339844 194.820312 C 139.488281 194.964844 139.558594 195.140625 139.558594 195.347656 C 139.558594 195.554688 139.488281 195.734375 139.339844 195.878906 C 139.195312 196.027344 139.015625 196.097656 138.808594 196.097656 C 138.601562 196.097656 138.425781 196.027344 138.28125 195.878906 C 138.132812 195.734375 138.0625 195.554688 138.0625 195.347656 C 138.0625 195.140625 138.132812 194.964844 138.28125 194.820312 C 138.425781 194.671875 138.601562 194.601562 138.808594 194.601562 Z M 141.808594 194.601562 C 142.015625 194.601562 142.191406 194.671875 142.339844 194.820312 C 142.484375 194.964844 142.558594 195.140625 142.558594 195.347656 C 142.558594 195.554688 142.484375 195.734375 142.339844 195.878906 C 142.191406 196.027344 142.015625 196.097656 141.808594 196.097656 C 141.601562 196.097656 141.425781 196.027344 141.277344 195.878906 C 141.132812 195.734375 141.058594 195.554688 141.058594 195.347656 C 141.058594 195.140625 141.132812 194.964844 141.277344 194.820312 C 141.425781 194.671875 141.601562 194.601562 141.808594 194.601562 Z M 144.808594 194.601562 C 145.015625 194.601562 145.191406 194.671875 145.335938 194.820312 C 145.484375 194.964844 145.558594 195.140625 145.558594 195.347656 C 145.558594 195.554688 145.484375 195.734375 145.335938 195.878906 C 145.191406 196.027344 145.015625 196.097656 144.808594 196.097656 C 144.601562 196.097656 144.421875 196.027344 144.277344 195.878906 C 144.132812 195.734375 144.058594 195.554688 144.058594 195.347656 C 144.058594 195.140625 144.132812 194.964844 144.277344 194.820312 C 144.421875 194.671875 144.601562 194.601562 144.808594 194.601562 Z M 147.804688 194.601562 C 148.011719 194.601562 148.191406 194.671875 148.335938 194.820312 C 148.484375 194.964844 148.554688 195.140625 148.554688 195.347656 C 148.554688 195.554688 148.484375 195.734375 148.335938 195.878906 C 148.191406 196.027344 148.011719 196.097656 147.804688 196.097656 C 147.597656 196.097656 147.421875 196.027344 147.277344 195.878906 C 147.128906 195.734375 147.054688 195.554688 147.054688 195.347656 C 147.054688 195.140625 147.128906 194.964844 147.277344 194.820312 C 147.421875 194.671875 147.597656 194.601562 147.804688 194.601562 Z M 150.804688 194.601562 C 151.011719 194.601562 151.1875 194.671875 151.335938 194.820312 C 151.480469 194.964844 151.554688 195.140625 151.554688 195.347656 C 151.554688 195.554688 151.480469 195.734375 151.335938 195.878906 C 151.1875 196.027344 151.011719 196.097656 150.804688 196.097656 C 150.597656 196.097656 150.421875 196.027344 150.273438 195.878906 C 150.128906 195.734375 150.054688 195.554688 150.054688 195.347656 C 150.054688 195.140625 150.128906 194.964844 150.273438 194.820312 C 150.421875 194.671875 150.597656 194.601562 150.804688 194.601562 Z M 153.804688 194.601562 C 154.011719 194.601562 154.1875 194.671875 154.332031 194.820312 C 154.480469 194.964844 154.554688 195.140625 154.554688 195.347656 C 154.554688 195.554688 154.480469 195.734375 154.332031 195.878906 C 154.1875 196.027344 154.011719 196.097656 153.804688 196.097656 C 153.597656 196.097656 153.417969 196.027344 153.273438 195.878906 C 153.125 195.734375 153.054688 195.554688 153.054688 195.347656 C 153.054688 195.140625 153.125 194.964844 153.273438 194.820312 C 153.417969 194.671875 153.597656 194.601562 153.804688 194.601562 Z M 156.800781 194.601562 C 157.007812 194.601562 157.1875 194.671875 157.332031 194.820312 C 157.476562 194.964844 157.550781 195.140625 157.550781 195.347656 C 157.550781 195.554688 157.476562 195.734375 157.332031 195.878906 C 157.1875 196.027344 157.007812 196.097656 156.800781 196.097656 C 156.59375 196.097656 156.417969 196.027344 156.273438 195.878906 C 156.125 195.734375 156.050781 195.554688 156.050781 195.347656 C 156.050781 195.140625 156.125 194.964844 156.273438 194.820312 C 156.417969 194.671875 156.59375 194.601562 156.800781 194.601562 Z M 159.800781 194.601562 C 160.007812 194.601562 160.183594 194.671875 160.332031 194.820312 C 160.476562 194.964844 160.550781 195.140625 160.550781 195.347656 C 160.550781 195.554688 160.476562 195.734375 160.332031 195.878906 C 160.183594 196.027344 160.007812 196.097656 159.800781 196.097656 C 159.59375 196.097656 159.417969 196.027344 159.269531 195.878906 C 159.125 195.734375 159.050781 195.554688 159.050781 195.347656 C 159.050781 195.140625 159.125 194.964844 159.269531 194.820312 C 159.417969 194.671875 159.59375 194.601562 159.800781 194.601562 Z M 162.800781 194.601562 C 163.007812 194.601562 163.183594 194.671875 163.328125 194.820312 C 163.476562 194.964844 163.546875 195.140625 163.546875 195.347656 C 163.546875 195.554688 163.476562 195.734375 163.328125 195.878906 C 163.183594 196.027344 163.007812 196.097656 162.800781 196.097656 C 162.59375 196.097656 162.414062 196.027344 162.269531 195.878906 C 162.121094 195.734375 162.050781 195.554688 162.050781 195.347656 C 162.050781 195.140625 162.121094 194.964844 162.269531 194.820312 C 162.414062 194.671875 162.59375 194.601562 162.800781 194.601562 Z M 165.796875 194.601562 C 166.003906 194.601562 166.179688 194.671875 166.328125 194.820312 C 166.472656 194.964844 166.546875 195.140625 166.546875 195.347656 C 166.546875 195.554688 166.472656 195.734375 166.328125 195.878906 C 166.179688 196.027344 166.003906 196.097656 165.796875 196.097656 C 165.589844 196.097656 165.414062 196.027344 165.265625 195.878906 C 165.121094 195.734375 165.046875 195.554688 165.046875 195.347656 C 165.046875 195.140625 165.121094 194.964844 165.265625 194.820312 C 165.414062 194.671875 165.589844 194.601562 165.796875 194.601562 Z M 165.796875 194.601562 " fill-opacity="1" fill-rule="nonzero"/><path fill="#ffffff" d="M 73.183594 162.617188 C 73.183594 162.824219 73.113281 163 72.964844 163.144531 C 72.820312 163.292969 72.640625 163.367188 72.433594 163.367188 C 72.226562 163.367188 72.050781 163.292969 71.90625 163.144531 C 71.757812 163 71.683594 162.824219 71.683594 162.617188 C 71.683594 162.410156 71.757812 162.230469 71.90625 162.085938 C 72.050781 161.9375 72.226562 161.867188 72.433594 161.867188 C 72.640625 161.867188 72.820312 161.9375 72.964844 162.085938 C 73.113281 162.230469 73.183594 162.410156 73.183594 162.617188 Z M 73.183594 165.613281 C 73.183594 165.820312 73.113281 166 72.964844 166.144531 C 72.820312 166.289062 72.640625 166.363281 72.433594 166.363281 C 72.226562 166.363281 72.050781 166.289062 71.90625 166.144531 C 71.757812 166 71.683594 165.820312 71.683594 165.613281 C 71.683594 165.40625 71.757812 165.230469 71.90625 165.085938 C 72.050781 164.9375 72.226562 164.863281 72.433594 164.863281 C 72.640625 164.863281 72.820312 164.9375 72.964844 165.085938 C 73.113281 165.230469 73.183594 165.40625 73.183594 165.613281 Z M 73.183594 168.613281 C 73.183594 168.820312 73.113281 168.996094 72.964844 169.144531 C 72.820312 169.289062 72.640625 169.363281 72.433594 169.363281 C 72.226562 169.363281 72.050781 169.289062 71.90625 169.144531 C 71.757812 168.996094 71.683594 168.820312 71.683594 168.613281 C 71.683594 168.40625 71.757812 168.230469 71.90625 168.082031 C 72.050781 167.9375 72.226562 167.863281 72.433594 167.863281 C 72.640625 167.863281 72.820312 167.9375 72.964844 168.082031 C 73.113281 168.230469 73.183594 168.40625 73.183594 168.613281 Z M 73.183594 171.613281 C 73.183594 171.820312 73.113281 171.996094 72.964844 172.140625 C 72.820312 172.289062 72.640625 172.359375 72.433594 172.359375 C 72.226562 172.359375 72.050781 172.289062 71.90625 172.140625 C 71.757812 171.996094 71.683594 171.820312 71.683594 171.613281 C 71.683594 171.40625 71.757812 171.226562 71.90625 171.082031 C 72.050781 170.933594 72.226562 170.863281 72.433594 170.863281 C 72.640625 170.863281 72.820312 170.933594 72.964844 171.082031 C 73.113281 171.226562 73.183594 171.40625 73.183594 171.613281 Z M 73.183594 174.609375 C 73.183594 174.816406 73.113281 174.992188 72.964844 175.140625 C 72.820312 175.285156 72.640625 175.359375 72.433594 175.359375 C 72.226562 175.359375 72.050781 175.285156 71.90625 175.140625 C 71.757812 174.992188 71.683594 174.816406 71.683594 174.609375 C 71.683594 174.402344 71.757812 174.226562 71.90625 174.078125 C 72.050781 173.933594 72.226562 173.859375 72.433594 173.859375 C 72.640625 173.859375 72.820312 173.933594 72.964844 174.078125 C 73.113281 174.226562 73.183594 174.402344 73.183594 174.609375 Z M 73.183594 177.609375 C 73.183594 177.816406 73.113281 177.992188 72.964844 178.140625 C 72.820312 178.285156 72.640625 178.359375 72.433594 178.359375 C 72.226562 178.359375 72.050781 178.285156 71.90625 178.140625 C 71.757812 177.992188 71.683594 177.816406 71.683594 177.609375 C 71.683594 177.402344 71.757812 177.226562 71.90625 177.078125 C 72.050781 176.933594 72.226562 176.859375 72.433594 176.859375 C 72.640625 176.859375 72.820312 176.933594 72.964844 177.078125 C 73.113281 177.226562 73.183594 177.402344 73.183594 177.609375 Z M 73.183594 180.605469 L 73.183594 180.609375 C 73.183594 180.8125 73.113281 180.992188 72.964844 181.136719 C 72.820312 181.285156 72.640625 181.355469 72.433594 181.355469 C 72.226562 181.355469 72.050781 181.285156 71.90625 181.136719 C 71.757812 180.992188 71.683594 180.8125 71.683594 180.609375 L 71.683594 180.605469 C 71.683594 180.398438 71.757812 180.222656 71.90625 180.078125 C 72.050781 179.929688 72.226562 179.859375 72.433594 179.859375 C 72.640625 179.859375 72.820312 179.929688 72.964844 180.078125 C 73.113281 180.222656 73.183594 180.398438 73.183594 180.605469 Z M 73.183594 183.605469 C 73.183594 183.8125 73.113281 183.988281 72.964844 184.136719 C 72.820312 184.28125 72.640625 184.355469 72.433594 184.355469 C 72.226562 184.355469 72.050781 184.28125 71.90625 184.136719 C 71.757812 183.988281 71.683594 183.8125 71.683594 183.605469 C 71.683594 183.398438 71.757812 183.222656 71.90625 183.074219 C 72.050781 182.929688 72.226562 182.855469 72.433594 182.855469 C 72.640625 182.855469 72.820312 182.929688 72.964844 183.074219 C 73.113281 183.222656 73.183594 183.398438 73.183594 183.605469 Z M 73.183594 186.605469 C 73.183594 186.8125 73.113281 186.988281 72.964844 187.132812 C 72.820312 187.28125 72.640625 187.355469 72.433594 187.355469 C 72.226562 187.355469 72.050781 187.28125 71.90625 187.132812 C 71.757812 186.988281 71.683594 186.8125 71.683594 186.605469 C 71.683594 186.398438 71.757812 186.222656 71.90625 186.074219 C 72.050781 185.929688 72.226562 185.855469 72.433594 185.855469 C 72.640625 185.855469 72.820312 185.929688 72.964844 186.074219 C 73.113281 186.222656 73.183594 186.398438 73.183594 186.605469 Z M 73.183594 189.601562 C 73.183594 189.808594 73.113281 189.988281 72.964844 190.132812 C 72.820312 190.28125 72.640625 190.351562 72.433594 190.351562 C 72.226562 190.351562 72.050781 190.28125 71.90625 190.132812 C 71.757812 189.988281 71.683594 189.808594 71.683594 189.601562 C 71.683594 189.394531 71.757812 189.21875 71.90625 189.074219 C 72.050781 188.925781 72.226562 188.851562 72.433594 188.851562 C 72.640625 188.851562 72.820312 188.925781 72.964844 189.074219 C 73.113281 189.21875 73.183594 189.394531 73.183594 189.601562 Z M 73.183594 192.601562 C 73.183594 192.808594 73.113281 192.984375 72.964844 193.132812 C 72.820312 193.277344 72.640625 193.351562 72.433594 193.351562 C 72.226562 193.351562 72.050781 193.277344 71.90625 193.132812 C 71.757812 192.984375 71.683594 192.808594 71.683594 192.601562 C 71.683594 192.394531 71.757812 192.21875 71.90625 192.070312 C 72.050781 191.925781 72.226562 191.851562 72.433594 191.851562 C 72.640625 191.851562 72.820312 191.925781 72.964844 192.070312 C 73.113281 192.21875 73.183594 192.394531 73.183594 192.601562 Z M 73.183594 192.601562 " fill-opacity="1" fill-rule="nonzero"/><g fill="#ffffff" fill-opacity="1"><g transform="translate(371.048358, 143.400077)"><g><path d="M 5.359375 -10.71875 C 6.410156 -10.71875 7.316406 -10.507812 8.078125 -10.09375 C 8.835938 -9.675781 9.414062 -9.066406 9.8125 -8.265625 C 10.21875 -7.460938 10.421875 -6.492188 10.421875 -5.359375 C 10.421875 -4.234375 10.21875 -3.265625 9.8125 -2.453125 C 9.414062 -1.648438 8.835938 -1.039062 8.078125 -0.625 C 7.316406 -0.207031 6.410156 0 5.359375 0 L 1.109375 0 C 0.960938 0 0.847656 -0.0195312 0.765625 -0.0625 C 0.691406 -0.113281 0.632812 -0.207031 0.59375 -0.34375 C 0.5625 -0.476562 0.546875 -0.671875 0.546875 -0.921875 C 0.546875 -1.171875 0.5625 -1.363281 0.59375 -1.5 C 0.632812 -1.632812 0.691406 -1.722656 0.765625 -1.765625 C 0.847656 -1.816406 0.960938 -1.84375 1.109375 -1.84375 L 1.984375 -1.84375 L 1.984375 -8.859375 L 1.109375 -8.859375 C 0.960938 -8.859375 0.847656 -8.878906 0.765625 -8.921875 C 0.691406 -8.972656 0.632812 -9.066406 0.59375 -9.203125 C 0.5625 -9.335938 0.546875 -9.53125 0.546875 -9.78125 C 0.546875 -10.03125 0.5625 -10.222656 0.59375 -10.359375 C 0.632812 -10.492188 0.691406 -10.585938 0.765625 -10.640625 C 0.847656 -10.691406 0.960938 -10.71875 1.109375 -10.71875 Z M 4.234375 -1.9375 L 5.1875 -1.9375 C 6.113281 -1.9375 6.8125 -2.226562 7.28125 -2.8125 C 7.757812 -3.394531 8 -4.242188 8 -5.359375 C 8 -6.484375 7.757812 -7.332031 7.28125 -7.90625 C 6.8125 -8.476562 6.113281 -8.765625 5.1875 -8.765625 L 4.234375 -8.765625 Z M 4.234375 -1.9375 "/></g></g><g transform="translate(382.129788, 143.400077)"><g><path d="M 5.671875 -8.53125 C 6.585938 -8.53125 7.363281 -8.332031 8 -7.9375 C 8.644531 -7.550781 9.128906 -7.003906 9.453125 -6.296875 C 9.785156 -5.597656 9.953125 -4.800781 9.953125 -3.90625 C 9.953125 -3.695312 9.90625 -3.550781 9.8125 -3.46875 C 9.726562 -3.382812 9.585938 -3.34375 9.390625 -3.34375 L 3.59375 -3.34375 C 3.707031 -2.863281 3.953125 -2.492188 4.328125 -2.234375 C 4.703125 -1.972656 5.179688 -1.84375 5.765625 -1.84375 C 6.691406 -1.84375 7.703125 -2.007812 8.796875 -2.34375 C 8.867188 -2.363281 8.9375 -2.375 9 -2.375 C 9.132812 -2.375 9.25 -2.3125 9.34375 -2.1875 C 9.445312 -2.070312 9.535156 -1.875 9.609375 -1.59375 C 9.671875 -1.363281 9.703125 -1.171875 9.703125 -1.015625 C 9.703125 -0.859375 9.664062 -0.738281 9.59375 -0.65625 C 9.53125 -0.570312 9.421875 -0.5 9.265625 -0.4375 C 8.660156 -0.238281 8.046875 -0.0820312 7.421875 0.03125 C 6.796875 0.144531 6.179688 0.203125 5.578125 0.203125 C 4.660156 0.203125 3.867188 0.015625 3.203125 -0.359375 C 2.546875 -0.734375 2.046875 -1.25 1.703125 -1.90625 C 1.359375 -2.5625 1.1875 -3.316406 1.1875 -4.171875 C 1.1875 -5.015625 1.363281 -5.765625 1.71875 -6.421875 C 2.082031 -7.085938 2.601562 -7.601562 3.28125 -7.96875 C 3.96875 -8.34375 4.765625 -8.53125 5.671875 -8.53125 Z M 5.671875 -6.484375 C 4.566406 -6.484375 3.882812 -6.019531 3.625 -5.09375 L 7.59375 -5.09375 C 7.5 -5.539062 7.28125 -5.882812 6.9375 -6.125 C 6.601562 -6.363281 6.179688 -6.484375 5.671875 -6.484375 Z M 5.671875 -6.484375 "/></g></g><g transform="translate(393.211218, 143.400077)"><g><path d="M 8.171875 -8.53125 C 8.554688 -8.53125 8.832031 -8.488281 9 -8.40625 C 9.164062 -8.320312 9.25 -8.175781 9.25 -7.96875 L 9.25 -6.0625 C 9.25 -5.863281 9.179688 -5.71875 9.046875 -5.625 C 8.921875 -5.539062 8.707031 -5.5 8.40625 -5.5 C 8.09375 -5.5 7.875 -5.5625 7.75 -5.6875 C 7.394531 -6.0625 6.988281 -6.328125 6.53125 -6.484375 C 6.070312 -6.648438 5.546875 -6.734375 4.953125 -6.734375 C 4.585938 -6.734375 4.304688 -6.671875 4.109375 -6.546875 C 3.910156 -6.421875 3.8125 -6.25 3.8125 -6.03125 C 3.8125 -5.78125 4.035156 -5.601562 4.484375 -5.5 C 4.710938 -5.4375 5.109375 -5.378906 5.671875 -5.328125 C 6.234375 -5.253906 6.695312 -5.1875 7.0625 -5.125 C 7.4375 -5.0625 7.789062 -4.960938 8.125 -4.828125 C 8.601562 -4.628906 8.976562 -4.351562 9.25 -4 C 9.519531 -3.644531 9.65625 -3.175781 9.65625 -2.59375 C 9.65625 -2.019531 9.515625 -1.523438 9.234375 -1.109375 C 8.953125 -0.691406 8.539062 -0.367188 8 -0.140625 C 7.46875 0.0859375 6.820312 0.203125 6.0625 0.203125 C 5.226562 0.203125 4.453125 -0.0078125 3.734375 -0.4375 L 3.734375 -0.375 C 3.734375 -0.164062 3.644531 -0.0195312 3.46875 0.0625 C 3.300781 0.15625 3.023438 0.203125 2.640625 0.203125 C 2.253906 0.203125 1.976562 0.15625 1.8125 0.0625 C 1.65625 -0.0195312 1.578125 -0.164062 1.578125 -0.375 L 1.578125 -2.375 C 1.578125 -2.582031 1.644531 -2.726562 1.78125 -2.8125 C 1.925781 -2.90625 2.144531 -2.953125 2.4375 -2.953125 C 2.800781 -2.953125 3.050781 -2.867188 3.1875 -2.703125 C 3.488281 -2.316406 3.875 -2.035156 4.34375 -1.859375 C 4.8125 -1.691406 5.328125 -1.609375 5.890625 -1.609375 C 6.847656 -1.609375 7.328125 -1.859375 7.328125 -2.359375 C 7.328125 -2.503906 7.257812 -2.625 7.125 -2.71875 C 6.988281 -2.8125 6.789062 -2.882812 6.53125 -2.9375 C 6.375 -2.96875 6.023438 -3.023438 5.484375 -3.109375 C 4.867188 -3.179688 4.34375 -3.265625 3.90625 -3.359375 C 3.476562 -3.453125 3.082031 -3.597656 2.71875 -3.796875 C 1.894531 -4.253906 1.484375 -4.972656 1.484375 -5.953125 C 1.484375 -6.472656 1.625 -6.929688 1.90625 -7.328125 C 2.1875 -7.722656 2.570312 -8.019531 3.0625 -8.21875 C 3.5625 -8.425781 4.125 -8.53125 4.75 -8.53125 C 5.65625 -8.53125 6.460938 -8.3125 7.171875 -7.875 L 7.171875 -7.96875 C 7.171875 -8.175781 7.242188 -8.320312 7.390625 -8.40625 C 7.535156 -8.488281 7.796875 -8.53125 8.171875 -8.53125 Z M 8.171875 -8.53125 "/></g></g><g transform="translate(404.292648, 143.400077)"><g><path d="M 6.234375 -8.34375 C 6.429688 -8.34375 6.570312 -8.296875 6.65625 -8.203125 C 6.75 -8.117188 6.796875 -7.972656 6.796875 -7.765625 L 6.796875 -1.84375 L 9.328125 -1.84375 C 9.472656 -1.84375 9.582031 -1.816406 9.65625 -1.765625 C 9.738281 -1.722656 9.800781 -1.632812 9.84375 -1.5 C 9.882812 -1.363281 9.90625 -1.171875 9.90625 -0.921875 C 9.90625 -0.671875 9.882812 -0.476562 9.84375 -0.34375 C 9.800781 -0.207031 9.738281 -0.113281 9.65625 -0.0625 C 9.582031 -0.0195312 9.472656 0 9.328125 0 L 2.078125 0 C 1.929688 0 1.816406 -0.0195312 1.734375 -0.0625 C 1.660156 -0.113281 1.601562 -0.207031 1.5625 -0.34375 C 1.519531 -0.476562 1.5 -0.671875 1.5 -0.921875 C 1.5 -1.171875 1.519531 -1.363281 1.5625 -1.5 C 1.601562 -1.632812 1.660156 -1.722656 1.734375 -1.765625 C 1.816406 -1.816406 1.929688 -1.84375 2.078125 -1.84375 L 4.546875 -1.84375 L 4.546875 -6.484375 L 2.625 -6.484375 C 2.476562 -6.484375 2.363281 -6.507812 2.28125 -6.5625 C 2.207031 -6.613281 2.148438 -6.703125 2.109375 -6.828125 C 2.066406 -6.960938 2.046875 -7.15625 2.046875 -7.40625 C 2.046875 -7.664062 2.066406 -7.859375 2.109375 -7.984375 C 2.148438 -8.117188 2.207031 -8.210938 2.28125 -8.265625 C 2.363281 -8.316406 2.476562 -8.34375 2.625 -8.34375 Z M 5.640625 -12.296875 C 6.066406 -12.296875 6.363281 -12.253906 6.53125 -12.171875 C 6.707031 -12.085938 6.796875 -11.941406 6.796875 -11.734375 L 6.796875 -10.25 C 6.796875 -10.050781 6.710938 -9.90625 6.546875 -9.8125 C 6.390625 -9.726562 6.101562 -9.6875 5.6875 -9.6875 C 5.257812 -9.6875 4.957031 -9.726562 4.78125 -9.8125 C 4.613281 -9.90625 4.53125 -10.050781 4.53125 -10.25 L 4.53125 -11.734375 C 4.53125 -11.941406 4.609375 -12.085938 4.765625 -12.171875 C 4.929688 -12.253906 5.222656 -12.296875 5.640625 -12.296875 Z M 5.640625 -12.296875 "/></g></g><g transform="translate(415.374078, 143.400077)"><g><path d="M 4.765625 -8.53125 C 5.335938 -8.53125 5.859375 -8.410156 6.328125 -8.171875 C 6.796875 -7.929688 7.1875 -7.585938 7.5 -7.140625 L 7.5 -7.765625 C 7.5 -7.972656 7.539062 -8.117188 7.625 -8.203125 C 7.71875 -8.296875 7.863281 -8.34375 8.0625 -8.34375 L 10.1875 -8.34375 C 10.320312 -8.34375 10.425781 -8.316406 10.5 -8.265625 C 10.582031 -8.210938 10.644531 -8.117188 10.6875 -7.984375 C 10.726562 -7.859375 10.75 -7.664062 10.75 -7.40625 C 10.75 -7.15625 10.726562 -6.960938 10.6875 -6.828125 C 10.644531 -6.703125 10.582031 -6.613281 10.5 -6.5625 C 10.425781 -6.507812 10.320312 -6.484375 10.1875 -6.484375 L 9.390625 -6.484375 L 9.390625 -0.015625 C 9.390625 1.171875 9.035156 2.085938 8.328125 2.734375 C 7.628906 3.378906 6.570312 3.703125 5.15625 3.703125 C 4.644531 3.703125 4.082031 3.648438 3.46875 3.546875 C 2.851562 3.453125 2.265625 3.316406 1.703125 3.140625 C 1.410156 3.046875 1.265625 2.835938 1.265625 2.515625 C 1.265625 2.367188 1.304688 2.160156 1.390625 1.890625 C 1.484375 1.609375 1.582031 1.398438 1.6875 1.265625 C 1.800781 1.140625 1.929688 1.078125 2.078125 1.078125 C 2.160156 1.078125 2.234375 1.09375 2.296875 1.125 C 3.453125 1.476562 4.378906 1.65625 5.078125 1.65625 C 5.804688 1.65625 6.332031 1.5 6.65625 1.1875 C 6.976562 0.882812 7.140625 0.425781 7.140625 -0.1875 L 7.140625 -1.109375 C 6.828125 -0.773438 6.46875 -0.519531 6.0625 -0.34375 C 5.664062 -0.164062 5.234375 -0.078125 4.765625 -0.078125 C 3.984375 -0.078125 3.296875 -0.257812 2.703125 -0.625 C 2.117188 -0.988281 1.664062 -1.488281 1.34375 -2.125 C 1.03125 -2.769531 0.875 -3.5 0.875 -4.3125 C 0.875 -5.125 1.03125 -5.847656 1.34375 -6.484375 C 1.664062 -7.128906 2.117188 -7.628906 2.703125 -7.984375 C 3.296875 -8.347656 3.984375 -8.53125 4.765625 -8.53125 Z M 5.125 -6.484375 C 4.5625 -6.484375 4.113281 -6.289062 3.78125 -5.90625 C 3.457031 -5.53125 3.296875 -5 3.296875 -4.3125 C 3.296875 -3.613281 3.457031 -3.070312 3.78125 -2.6875 C 4.113281 -2.3125 4.5625 -2.125 5.125 -2.125 C 5.507812 -2.125 5.859375 -2.207031 6.171875 -2.375 C 6.492188 -2.539062 6.742188 -2.785156 6.921875 -3.109375 C 7.109375 -3.429688 7.203125 -3.832031 7.203125 -4.3125 C 7.203125 -4.78125 7.109375 -5.175781 6.921875 -5.5 C 6.742188 -5.832031 6.492188 -6.078125 6.171875 -6.234375 C 5.859375 -6.398438 5.507812 -6.484375 5.125 -6.484375 Z M 5.125 -6.484375 "/></g></g><g transform="translate(426.455508, 143.400077)"><g><path d="M 6.828125 -8.53125 C 7.378906 -8.53125 7.859375 -8.410156 8.265625 -8.171875 C 8.679688 -7.929688 9 -7.585938 9.21875 -7.140625 C 9.445312 -6.703125 9.5625 -6.1875 9.5625 -5.59375 L 9.5625 -1.84375 L 10.25 -1.84375 C 10.394531 -1.84375 10.503906 -1.816406 10.578125 -1.765625 C 10.660156 -1.722656 10.722656 -1.632812 10.765625 -1.5 C 10.804688 -1.363281 10.828125 -1.171875 10.828125 -0.921875 C 10.828125 -0.671875 10.804688 -0.476562 10.765625 -0.34375 C 10.722656 -0.207031 10.660156 -0.113281 10.578125 -0.0625 C 10.503906 -0.0195312 10.394531 0 10.25 0 L 6.875 0 C 6.726562 0 6.613281 -0.0195312 6.53125 -0.0625 C 6.457031 -0.113281 6.398438 -0.207031 6.359375 -0.34375 C 6.328125 -0.476562 6.3125 -0.671875 6.3125 -0.921875 C 6.3125 -1.171875 6.328125 -1.363281 6.359375 -1.5 C 6.398438 -1.632812 6.457031 -1.722656 6.53125 -1.765625 C 6.613281 -1.816406 6.726562 -1.84375 6.875 -1.84375 L 7.296875 -1.84375 L 7.296875 -5.0625 C 7.296875 -5.53125 7.210938 -5.882812 7.046875 -6.125 C 6.890625 -6.363281 6.625 -6.484375 6.25 -6.484375 C 5.894531 -6.484375 5.5625 -6.335938 5.25 -6.046875 C 4.9375 -5.753906 4.6875 -5.363281 4.5 -4.875 C 4.3125 -4.394531 4.21875 -3.878906 4.21875 -3.328125 L 4.21875 -1.84375 L 4.640625 -1.84375 C 4.785156 -1.84375 4.894531 -1.816406 4.96875 -1.765625 C 5.050781 -1.722656 5.109375 -1.632812 5.140625 -1.5 C 5.179688 -1.363281 5.203125 -1.171875 5.203125 -0.921875 C 5.203125 -0.671875 5.179688 -0.476562 5.140625 -0.34375 C 5.109375 -0.207031 5.050781 -0.113281 4.96875 -0.0625 C 4.894531 -0.0195312 4.785156 0 4.640625 0 L 1.265625 0 C 1.117188 0 1.003906 -0.0195312 0.921875 -0.0625 C 0.847656 -0.113281 0.789062 -0.207031 0.75 -0.34375 C 0.707031 -0.476562 0.6875 -0.671875 0.6875 -0.921875 C 0.6875 -1.171875 0.707031 -1.363281 0.75 -1.5 C 0.789062 -1.632812 0.847656 -1.722656 0.921875 -1.765625 C 1.003906 -1.816406 1.117188 -1.84375 1.265625 -1.84375 L 1.953125 -1.84375 L 1.953125 -6.484375 L 1.078125 -6.484375 C 0.929688 -6.484375 0.816406 -6.507812 0.734375 -6.5625 C 0.660156 -6.613281 0.601562 -6.703125 0.5625 -6.828125 C 0.53125 -6.960938 0.515625 -7.15625 0.515625 -7.40625 C 0.515625 -7.664062 0.53125 -7.859375 0.5625 -7.984375 C 0.601562 -8.117188 0.660156 -8.210938 0.734375 -8.265625 C 0.816406 -8.316406 0.929688 -8.34375 1.078125 -8.34375 L 3.28125 -8.34375 C 3.488281 -8.34375 3.632812 -8.296875 3.71875 -8.203125 C 3.8125 -8.117188 3.859375 -7.972656 3.859375 -7.765625 L 3.859375 -6.46875 C 4.648438 -7.84375 5.640625 -8.53125 6.828125 -8.53125 Z M 6.828125 -8.53125 "/></g></g></g><g fill="#ffffff" fill-opacity="1"><g transform="translate(34.394261, 143.400077)"><g><path d="M 9.078125 -10.90625 C 9.453125 -10.90625 9.707031 -10.863281 9.84375 -10.78125 C 9.976562 -10.695312 10.046875 -10.550781 10.046875 -10.34375 L 10.046875 -6.875 C 10.046875 -6.675781 9.953125 -6.53125 9.765625 -6.4375 C 9.585938 -6.351562 9.285156 -6.3125 8.859375 -6.3125 C 8.578125 -6.3125 8.359375 -6.328125 8.203125 -6.359375 C 8.054688 -6.398438 7.953125 -6.457031 7.890625 -6.53125 C 7.828125 -6.613281 7.796875 -6.726562 7.796875 -6.875 C 7.796875 -7.476562 7.628906 -7.957031 7.296875 -8.3125 C 6.972656 -8.675781 6.507812 -8.859375 5.90625 -8.859375 C 5.0625 -8.859375 4.421875 -8.554688 3.984375 -7.953125 C 3.554688 -7.359375 3.34375 -6.492188 3.34375 -5.359375 C 3.34375 -4.242188 3.570312 -3.378906 4.03125 -2.765625 C 4.5 -2.148438 5.15625 -1.84375 6 -1.84375 C 6.519531 -1.84375 7.019531 -1.914062 7.5 -2.0625 C 7.976562 -2.207031 8.503906 -2.421875 9.078125 -2.703125 C 9.171875 -2.753906 9.257812 -2.78125 9.34375 -2.78125 C 9.625 -2.78125 9.859375 -2.53125 10.046875 -2.03125 C 10.128906 -1.800781 10.171875 -1.597656 10.171875 -1.421875 C 10.171875 -1.109375 10.03125 -0.890625 9.75 -0.765625 C 8.46875 -0.117188 7.1875 0.203125 5.90625 0.203125 C 4.914062 0.203125 4.046875 -0.0195312 3.296875 -0.46875 C 2.546875 -0.925781 1.960938 -1.570312 1.546875 -2.40625 C 1.128906 -3.25 0.921875 -4.234375 0.921875 -5.359375 C 0.921875 -6.484375 1.125 -7.460938 1.53125 -8.296875 C 1.9375 -9.140625 2.492188 -9.785156 3.203125 -10.234375 C 3.921875 -10.679688 4.726562 -10.90625 5.625 -10.90625 C 6.6875 -10.90625 7.472656 -10.53125 7.984375 -9.78125 L 7.984375 -10.34375 C 7.984375 -10.550781 8.066406 -10.695312 8.234375 -10.78125 C 8.410156 -10.863281 8.691406 -10.90625 9.078125 -10.90625 Z M 9.078125 -10.90625 "/></g></g><g transform="translate(45.475691, 143.400077)"><g><path d="M 5.546875 -8.53125 C 6.453125 -8.53125 7.25 -8.34375 7.9375 -7.96875 C 8.625 -7.601562 9.148438 -7.085938 9.515625 -6.421875 C 9.890625 -5.765625 10.078125 -5.015625 10.078125 -4.171875 C 10.078125 -3.328125 9.890625 -2.570312 9.515625 -1.90625 C 9.148438 -1.25 8.625 -0.734375 7.9375 -0.359375 C 7.25 0.015625 6.453125 0.203125 5.546875 0.203125 C 4.628906 0.203125 3.828125 0.015625 3.140625 -0.359375 C 2.453125 -0.734375 1.921875 -1.25 1.546875 -1.90625 C 1.179688 -2.570312 1 -3.328125 1 -4.171875 C 1 -5.015625 1.179688 -5.765625 1.546875 -6.421875 C 1.921875 -7.085938 2.453125 -7.601562 3.140625 -7.96875 C 3.828125 -8.34375 4.628906 -8.53125 5.546875 -8.53125 Z M 5.546875 -6.484375 C 5.109375 -6.484375 4.726562 -6.390625 4.40625 -6.203125 C 4.09375 -6.015625 3.847656 -5.742188 3.671875 -5.390625 C 3.503906 -5.046875 3.421875 -4.640625 3.421875 -4.171875 C 3.421875 -3.703125 3.503906 -3.289062 3.671875 -2.9375 C 3.847656 -2.59375 4.09375 -2.320312 4.40625 -2.125 C 4.726562 -1.9375 5.109375 -1.84375 5.546875 -1.84375 C 5.972656 -1.84375 6.34375 -1.9375 6.65625 -2.125 C 6.976562 -2.320312 7.222656 -2.59375 7.390625 -2.9375 C 7.566406 -3.289062 7.65625 -3.703125 7.65625 -4.171875 C 7.65625 -4.640625 7.566406 -5.046875 7.390625 -5.390625 C 7.222656 -5.742188 6.976562 -6.015625 6.65625 -6.203125 C 6.34375 -6.390625 5.972656 -6.484375 5.546875 -6.484375 Z M 5.546875 -6.484375 "/></g></g><g transform="translate(56.557121, 143.400077)"><g><path d="M 6.828125 -8.53125 C 7.378906 -8.53125 7.859375 -8.410156 8.265625 -8.171875 C 8.679688 -7.929688 9 -7.585938 9.21875 -7.140625 C 9.445312 -6.703125 9.5625 -6.1875 9.5625 -5.59375 L 9.5625 -1.84375 L 10.25 -1.84375 C 10.394531 -1.84375 10.503906 -1.816406 10.578125 -1.765625 C 10.660156 -1.722656 10.722656 -1.632812 10.765625 -1.5 C 10.804688 -1.363281 10.828125 -1.171875 10.828125 -0.921875 C 10.828125 -0.671875 10.804688 -0.476562 10.765625 -0.34375 C 10.722656 -0.207031 10.660156 -0.113281 10.578125 -0.0625 C 10.503906 -0.0195312 10.394531 0 10.25 0 L 6.875 0 C 6.726562 0 6.613281 -0.0195312 6.53125 -0.0625 C 6.457031 -0.113281 6.398438 -0.207031 6.359375 -0.34375 C 6.328125 -0.476562 6.3125 -0.671875 6.3125 -0.921875 C 6.3125 -1.171875 6.328125 -1.363281 6.359375 -1.5 C 6.398438 -1.632812 6.457031 -1.722656 6.53125 -1.765625 C 6.613281 -1.816406 6.726562 -1.84375 6.875 -1.84375 L 7.296875 -1.84375 L 7.296875 -5.0625 C 7.296875 -5.53125 7.210938 -5.882812 7.046875 -6.125 C 6.890625 -6.363281 6.625 -6.484375 6.25 -6.484375 C 5.894531 -6.484375 5.5625 -6.335938 5.25 -6.046875 C 4.9375 -5.753906 4.6875 -5.363281 4.5 -4.875 C 4.3125 -4.394531 4.21875 -3.878906 4.21875 -3.328125 L 4.21875 -1.84375 L 4.640625 -1.84375 C 4.785156 -1.84375 4.894531 -1.816406 4.96875 -1.765625 C 5.050781 -1.722656 5.109375 -1.632812 5.140625 -1.5 C 5.179688 -1.363281 5.203125 -1.171875 5.203125 -0.921875 C 5.203125 -0.671875 5.179688 -0.476562 5.140625 -0.34375 C 5.109375 -0.207031 5.050781 -0.113281 4.96875 -0.0625 C 4.894531 -0.0195312 4.785156 0 4.640625 0 L 1.265625 0 C 1.117188 0 1.003906 -0.0195312 0.921875 -0.0625 C 0.847656 -0.113281 0.789062 -0.207031 0.75 -0.34375 C 0.707031 -0.476562 0.6875 -0.671875 0.6875 -0.921875 C 0.6875 -1.171875 0.707031 -1.363281 0.75 -1.5 C 0.789062 -1.632812 0.847656 -1.722656 0.921875 -1.765625 C 1.003906 -1.816406 1.117188 -1.84375 1.265625 -1.84375 L 1.953125 -1.84375 L 1.953125 -6.484375 L 1.078125 -6.484375 C 0.929688 -6.484375 0.816406 -6.507812 0.734375 -6.5625 C 0.660156 -6.613281 0.601562 -6.703125 0.5625 -6.828125 C 0.53125 -6.960938 0.515625 -7.15625 0.515625 -7.40625 C 0.515625 -7.664062 0.53125 -7.859375 0.5625 -7.984375 C 0.601562 -8.117188 0.660156 -8.210938 0.734375 -8.265625 C 0.816406 -8.316406 0.929688 -8.34375 1.078125 -8.34375 L 3.28125 -8.34375 C 3.488281 -8.34375 3.632812 -8.296875 3.71875 -8.203125 C 3.8125 -8.117188 3.859375 -7.972656 3.859375 -7.765625 L 3.859375 -6.46875 C 4.648438 -7.84375 5.640625 -8.53125 6.828125 -8.53125 Z M 6.828125 -8.53125 "/></g></g><g transform="translate(67.638551, 143.400077)"><g><path d="M 4.375 -10.90625 C 4.65625 -10.90625 4.875 -10.882812 5.03125 -10.84375 C 5.1875 -10.8125 5.289062 -10.753906 5.34375 -10.671875 C 5.40625 -10.597656 5.4375 -10.488281 5.4375 -10.34375 L 5.4375 -7.796875 L 8.796875 -7.796875 C 9.003906 -7.796875 9.148438 -7.726562 9.234375 -7.59375 C 9.316406 -7.457031 9.359375 -7.203125 9.359375 -6.828125 C 9.359375 -6.453125 9.316406 -6.195312 9.234375 -6.0625 C 9.148438 -5.925781 9.003906 -5.859375 8.796875 -5.859375 L 5.4375 -5.859375 L 5.4375 -3.34375 C 5.4375 -2.34375 5.828125 -1.84375 6.609375 -1.84375 C 6.878906 -1.84375 7.195312 -1.90625 7.5625 -2.03125 C 7.9375 -2.15625 8.375 -2.328125 8.875 -2.546875 C 9.007812 -2.609375 9.113281 -2.640625 9.1875 -2.640625 C 9.3125 -2.640625 9.425781 -2.582031 9.53125 -2.46875 C 9.644531 -2.363281 9.75 -2.191406 9.84375 -1.953125 C 9.957031 -1.679688 10.015625 -1.460938 10.015625 -1.296875 C 10.015625 -1.160156 9.976562 -1.050781 9.90625 -0.96875 C 9.84375 -0.882812 9.75 -0.804688 9.625 -0.734375 C 8.382812 -0.109375 7.3125 0.203125 6.40625 0.203125 C 5.363281 0.203125 4.566406 -0.0859375 4.015625 -0.671875 C 3.460938 -1.253906 3.1875 -2.109375 3.1875 -3.234375 L 3.1875 -5.859375 L 1.4375 -5.859375 C 1.226562 -5.859375 1.082031 -5.925781 1 -6.0625 C 0.914062 -6.195312 0.875 -6.453125 0.875 -6.828125 C 0.875 -7.203125 0.914062 -7.457031 1 -7.59375 C 1.082031 -7.726562 1.226562 -7.796875 1.4375 -7.796875 L 3.1875 -7.796875 L 3.1875 -10.34375 C 3.1875 -10.550781 3.273438 -10.695312 3.453125 -10.78125 C 3.640625 -10.863281 3.945312 -10.90625 4.375 -10.90625 Z M 4.375 -10.90625 "/></g></g><g transform="translate(78.719982, 143.400077)"><g><path d="M 5.671875 -8.53125 C 6.585938 -8.53125 7.363281 -8.332031 8 -7.9375 C 8.644531 -7.550781 9.128906 -7.003906 9.453125 -6.296875 C 9.785156 -5.597656 9.953125 -4.800781 9.953125 -3.90625 C 9.953125 -3.695312 9.90625 -3.550781 9.8125 -3.46875 C 9.726562 -3.382812 9.585938 -3.34375 9.390625 -3.34375 L 3.59375 -3.34375 C 3.707031 -2.863281 3.953125 -2.492188 4.328125 -2.234375 C 4.703125 -1.972656 5.179688 -1.84375 5.765625 -1.84375 C 6.691406 -1.84375 7.703125 -2.007812 8.796875 -2.34375 C 8.867188 -2.363281 8.9375 -2.375 9 -2.375 C 9.132812 -2.375 9.25 -2.3125 9.34375 -2.1875 C 9.445312 -2.070312 9.535156 -1.875 9.609375 -1.59375 C 9.671875 -1.363281 9.703125 -1.171875 9.703125 -1.015625 C 9.703125 -0.859375 9.664062 -0.738281 9.59375 -0.65625 C 9.53125 -0.570312 9.421875 -0.5 9.265625 -0.4375 C 8.660156 -0.238281 8.046875 -0.0820312 7.421875 0.03125 C 6.796875 0.144531 6.179688 0.203125 5.578125 0.203125 C 4.660156 0.203125 3.867188 0.015625 3.203125 -0.359375 C 2.546875 -0.734375 2.046875 -1.25 1.703125 -1.90625 C 1.359375 -2.5625 1.1875 -3.316406 1.1875 -4.171875 C 1.1875 -5.015625 1.363281 -5.765625 1.71875 -6.421875 C 2.082031 -7.085938 2.601562 -7.601562 3.28125 -7.96875 C 3.96875 -8.34375 4.765625 -8.53125 5.671875 -8.53125 Z M 5.671875 -6.484375 C 4.566406 -6.484375 3.882812 -6.019531 3.625 -5.09375 L 7.59375 -5.09375 C 7.5 -5.539062 7.28125 -5.882812 6.9375 -6.125 C 6.601562 -6.363281 6.179688 -6.484375 5.671875 -6.484375 Z M 5.671875 -6.484375 "/></g></g><g transform="translate(89.801412, 143.400077)"><g><path d="M 6.828125 -8.53125 C 7.378906 -8.53125 7.859375 -8.410156 8.265625 -8.171875 C 8.679688 -7.929688 9 -7.585938 9.21875 -7.140625 C 9.445312 -6.703125 9.5625 -6.1875 9.5625 -5.59375 L 9.5625 -1.84375 L 10.25 -1.84375 C 10.394531 -1.84375 10.503906 -1.816406 10.578125 -1.765625 C 10.660156 -1.722656 10.722656 -1.632812 10.765625 -1.5 C 10.804688 -1.363281 10.828125 -1.171875 10.828125 -0.921875 C 10.828125 -0.671875 10.804688 -0.476562 10.765625 -0.34375 C 10.722656 -0.207031 10.660156 -0.113281 10.578125 -0.0625 C 10.503906 -0.0195312 10.394531 0 10.25 0 L 6.875 0 C 6.726562 0 6.613281 -0.0195312 6.53125 -0.0625 C 6.457031 -0.113281 6.398438 -0.207031 6.359375 -0.34375 C 6.328125 -0.476562 6.3125 -0.671875 6.3125 -0.921875 C 6.3125 -1.171875 6.328125 -1.363281 6.359375 -1.5 C 6.398438 -1.632812 6.457031 -1.722656 6.53125 -1.765625 C 6.613281 -1.816406 6.726562 -1.84375 6.875 -1.84375 L 7.296875 -1.84375 L 7.296875 -5.0625 C 7.296875 -5.53125 7.210938 -5.882812 7.046875 -6.125 C 6.890625 -6.363281 6.625 -6.484375 6.25 -6.484375 C 5.894531 -6.484375 5.5625 -6.335938 5.25 -6.046875 C 4.9375 -5.753906 4.6875 -5.363281 4.5 -4.875 C 4.3125 -4.394531 4.21875 -3.878906 4.21875 -3.328125 L 4.21875 -1.84375 L 4.640625 -1.84375 C 4.785156 -1.84375 4.894531 -1.816406 4.96875 -1.765625 C 5.050781 -1.722656 5.109375 -1.632812 5.140625 -1.5 C 5.179688 -1.363281 5.203125 -1.171875 5.203125 -0.921875 C 5.203125 -0.671875 5.179688 -0.476562 5.140625 -0.34375 C 5.109375 -0.207031 5.050781 -0.113281 4.96875 -0.0625 C 4.894531 -0.0195312 4.785156 0 4.640625 0 L 1.265625 0 C 1.117188 0 1.003906 -0.0195312 0.921875 -0.0625 C 0.847656 -0.113281 0.789062 -0.207031 0.75 -0.34375 C 0.707031 -0.476562 0.6875 -0.671875 0.6875 -0.921875 C 0.6875 -1.171875 0.707031 -1.363281 0.75 -1.5 C 0.789062 -1.632812 0.847656 -1.722656 0.921875 -1.765625 C 1.003906 -1.816406 1.117188 -1.84375 1.265625 -1.84375 L 1.953125 -1.84375 L 1.953125 -6.484375 L 1.078125 -6.484375 C 0.929688 -6.484375 0.816406 -6.507812 0.734375 -6.5625 C 0.660156 -6.613281 0.601562 -6.703125 0.5625 -6.828125 C 0.53125 -6.960938 0.515625 -7.15625 0.515625 -7.40625 C 0.515625 -7.664062 0.53125 -7.859375 0.5625 -7.984375 C 0.601562 -8.117188 0.660156 -8.210938 0.734375 -8.265625 C 0.816406 -8.316406 0.929688 -8.34375 1.078125 -8.34375 L 3.28125 -8.34375 C 3.488281 -8.34375 3.632812 -8.296875 3.71875 -8.203125 C 3.8125 -8.117188 3.859375 -7.972656 3.859375 -7.765625 L 3.859375 -6.46875 C 4.648438 -7.84375 5.640625 -8.53125 6.828125 -8.53125 Z M 6.828125 -8.53125 "/></g></g><g transform="translate(100.882842, 143.400077)"><g><path d="M 4.375 -10.90625 C 4.65625 -10.90625 4.875 -10.882812 5.03125 -10.84375 C 5.1875 -10.8125 5.289062 -10.753906 5.34375 -10.671875 C 5.40625 -10.597656 5.4375 -10.488281 5.4375 -10.34375 L 5.4375 -7.796875 L 8.796875 -7.796875 C 9.003906 -7.796875 9.148438 -7.726562 9.234375 -7.59375 C 9.316406 -7.457031 9.359375 -7.203125 9.359375 -6.828125 C 9.359375 -6.453125 9.316406 -6.195312 9.234375 -6.0625 C 9.148438 -5.925781 9.003906 -5.859375 8.796875 -5.859375 L 5.4375 -5.859375 L 5.4375 -3.34375 C 5.4375 -2.34375 5.828125 -1.84375 6.609375 -1.84375 C 6.878906 -1.84375 7.195312 -1.90625 7.5625 -2.03125 C 7.9375 -2.15625 8.375 -2.328125 8.875 -2.546875 C 9.007812 -2.609375 9.113281 -2.640625 9.1875 -2.640625 C 9.3125 -2.640625 9.425781 -2.582031 9.53125 -2.46875 C 9.644531 -2.363281 9.75 -2.191406 9.84375 -1.953125 C 9.957031 -1.679688 10.015625 -1.460938 10.015625 -1.296875 C 10.015625 -1.160156 9.976562 -1.050781 9.90625 -0.96875 C 9.84375 -0.882812 9.75 -0.804688 9.625 -0.734375 C 8.382812 -0.109375 7.3125 0.203125 6.40625 0.203125 C 5.363281 0.203125 4.566406 -0.0859375 4.015625 -0.671875 C 3.460938 -1.253906 3.1875 -2.109375 3.1875 -3.234375 L 3.1875 -5.859375 L 1.4375 -5.859375 C 1.226562 -5.859375 1.082031 -5.925781 1 -6.0625 C 0.914062 -6.195312 0.875 -6.453125 0.875 -6.828125 C 0.875 -7.203125 0.914062 -7.457031 1 -7.59375 C 1.082031 -7.726562 1.226562 -7.796875 1.4375 -7.796875 L 3.1875 -7.796875 L 3.1875 -10.34375 C 3.1875 -10.550781 3.273438 -10.695312 3.453125 -10.78125 C 3.640625 -10.863281 3.945312 -10.90625 4.375 -10.90625 Z M 4.375 -10.90625 "/></g></g></g><g fill="#ffffff" fill-opacity="1"><g transform="translate(193.401257, 54.974929)"><g><path d="M 8.515625 -10.90625 C 8.753906 -10.90625 8.925781 -10.859375 9.03125 -10.765625 C 9.132812 -10.679688 9.1875 -10.535156 9.1875 -10.328125 L 9.1875 -8.25 C 9.1875 -8.039062 9.132812 -7.890625 9.03125 -7.796875 C 8.925781 -7.703125 8.753906 -7.65625 8.515625 -7.65625 C 8.285156 -7.65625 8.128906 -7.734375 8.046875 -7.890625 C 7.753906 -8.441406 7.34375 -8.859375 6.8125 -9.140625 C 6.289062 -9.429688 5.695312 -9.578125 5.03125 -9.578125 C 4.375 -9.578125 3.863281 -9.421875 3.5 -9.109375 C 3.132812 -8.804688 2.953125 -8.394531 2.953125 -7.875 C 2.953125 -7.632812 3.015625 -7.425781 3.140625 -7.25 C 3.265625 -7.082031 3.445312 -6.941406 3.6875 -6.828125 C 3.894531 -6.710938 4.140625 -6.617188 4.421875 -6.546875 C 4.703125 -6.484375 5.082031 -6.40625 5.5625 -6.3125 C 6.082031 -6.21875 6.492188 -6.132812 6.796875 -6.0625 C 7.097656 -5.988281 7.394531 -5.894531 7.6875 -5.78125 C 8.289062 -5.53125 8.757812 -5.179688 9.09375 -4.734375 C 9.4375 -4.296875 9.609375 -3.703125 9.609375 -2.953125 C 9.609375 -2.328125 9.460938 -1.773438 9.171875 -1.296875 C 8.878906 -0.828125 8.441406 -0.457031 7.859375 -0.1875 C 7.285156 0.0703125 6.597656 0.203125 5.796875 0.203125 C 5.191406 0.203125 4.628906 0.09375 4.109375 -0.125 C 3.597656 -0.34375 3.15625 -0.664062 2.78125 -1.09375 L 2.78125 -0.390625 C 2.78125 -0.179688 2.726562 -0.03125 2.625 0.0625 C 2.519531 0.15625 2.347656 0.203125 2.109375 0.203125 C 1.859375 0.203125 1.679688 0.15625 1.578125 0.0625 C 1.472656 -0.03125 1.421875 -0.179688 1.421875 -0.390625 L 1.421875 -3.09375 C 1.421875 -3.300781 1.472656 -3.453125 1.578125 -3.546875 C 1.679688 -3.640625 1.859375 -3.6875 2.109375 -3.6875 C 2.359375 -3.6875 2.53125 -3.554688 2.625 -3.296875 C 2.875 -2.597656 3.265625 -2.0625 3.796875 -1.6875 C 4.335938 -1.320312 5.003906 -1.140625 5.796875 -1.140625 C 6.566406 -1.140625 7.15625 -1.300781 7.5625 -1.625 C 7.976562 -1.957031 8.1875 -2.398438 8.1875 -2.953125 C 8.1875 -3.328125 8.09375 -3.632812 7.90625 -3.875 C 7.71875 -4.113281 7.441406 -4.3125 7.078125 -4.46875 C 6.847656 -4.570312 6.597656 -4.65625 6.328125 -4.71875 C 6.054688 -4.78125 5.6875 -4.859375 5.21875 -4.953125 C 4.726562 -5.046875 4.3125 -5.132812 3.96875 -5.21875 C 3.632812 -5.3125 3.328125 -5.421875 3.046875 -5.546875 C 2.566406 -5.753906 2.191406 -6.046875 1.921875 -6.421875 C 1.660156 -6.796875 1.53125 -7.28125 1.53125 -7.875 C 1.53125 -8.5 1.675781 -9.039062 1.96875 -9.5 C 2.269531 -9.957031 2.6875 -10.304688 3.21875 -10.546875 C 3.75 -10.785156 4.351562 -10.90625 5.03125 -10.90625 C 5.5625 -10.90625 6.070312 -10.800781 6.5625 -10.59375 C 7.0625 -10.394531 7.484375 -10.125 7.828125 -9.78125 L 7.828125 -10.328125 C 7.828125 -10.535156 7.878906 -10.679688 7.984375 -10.765625 C 8.085938 -10.859375 8.265625 -10.90625 8.515625 -10.90625 Z M 8.515625 -10.90625 "/></g></g><g transform="translate(204.482687, 54.974929)"><g><path d="M 4.140625 -10.90625 C 4.378906 -10.90625 4.550781 -10.859375 4.65625 -10.765625 C 4.757812 -10.679688 4.8125 -10.535156 4.8125 -10.328125 L 4.8125 -7.625 L 8.515625 -7.625 C 8.722656 -7.625 8.867188 -7.578125 8.953125 -7.484375 C 9.046875 -7.390625 9.09375 -7.226562 9.09375 -7 C 9.09375 -6.78125 9.046875 -6.625 8.953125 -6.53125 C 8.867188 -6.4375 8.722656 -6.390625 8.515625 -6.390625 L 4.8125 -6.390625 L 4.8125 -3.109375 C 4.8125 -2.421875 4.929688 -1.914062 5.171875 -1.59375 C 5.410156 -1.28125 5.820312 -1.125 6.40625 -1.125 C 6.8125 -1.125 7.234375 -1.203125 7.671875 -1.359375 C 8.117188 -1.523438 8.550781 -1.742188 8.96875 -2.015625 C 9.050781 -2.078125 9.144531 -2.109375 9.25 -2.109375 C 9.457031 -2.109375 9.632812 -1.96875 9.78125 -1.6875 C 9.851562 -1.53125 9.890625 -1.394531 9.890625 -1.28125 C 9.890625 -1.09375 9.789062 -0.9375 9.59375 -0.8125 C 9.125 -0.519531 8.597656 -0.273438 8.015625 -0.078125 C 7.441406 0.109375 6.90625 0.203125 6.40625 0.203125 C 5.382812 0.203125 4.632812 -0.0625 4.15625 -0.59375 C 3.6875 -1.132812 3.453125 -1.929688 3.453125 -2.984375 L 3.453125 -6.390625 L 1.625 -6.390625 C 1.414062 -6.390625 1.269531 -6.4375 1.1875 -6.53125 C 1.101562 -6.625 1.0625 -6.78125 1.0625 -7 C 1.0625 -7.226562 1.101562 -7.390625 1.1875 -7.484375 C 1.269531 -7.578125 1.414062 -7.625 1.625 -7.625 L 3.453125 -7.625 L 3.453125 -10.328125 C 3.453125 -10.535156 3.503906 -10.679688 3.609375 -10.765625 C 3.710938 -10.859375 3.890625 -10.90625 4.140625 -10.90625 Z M 4.140625 -10.90625 "/></g></g><g transform="translate(215.564117, 54.974929)"><g><path d="M 8.296875 -8.53125 C 8.765625 -8.53125 9.207031 -8.410156 9.625 -8.171875 C 9.863281 -8.023438 9.984375 -7.84375 9.984375 -7.625 C 9.984375 -7.507812 9.957031 -7.378906 9.90625 -7.234375 C 9.78125 -6.890625 9.601562 -6.71875 9.375 -6.71875 C 9.289062 -6.71875 9.207031 -6.742188 9.125 -6.796875 C 8.832031 -6.960938 8.515625 -7.046875 8.171875 -7.046875 C 7.628906 -7.046875 7.082031 -6.851562 6.53125 -6.46875 C 5.988281 -6.09375 5.539062 -5.59375 5.1875 -4.96875 C 4.84375 -4.34375 4.671875 -3.679688 4.671875 -2.984375 L 4.671875 -1.234375 L 7.703125 -1.234375 C 7.910156 -1.234375 8.054688 -1.1875 8.140625 -1.09375 C 8.234375 -1 8.28125 -0.835938 8.28125 -0.609375 C 8.28125 -0.390625 8.234375 -0.234375 8.140625 -0.140625 C 8.054688 -0.046875 7.910156 0 7.703125 0 L 1.890625 0 C 1.691406 0 1.546875 -0.046875 1.453125 -0.140625 C 1.367188 -0.234375 1.328125 -0.390625 1.328125 -0.609375 C 1.328125 -0.835938 1.367188 -1 1.453125 -1.09375 C 1.546875 -1.1875 1.691406 -1.234375 1.890625 -1.234375 L 3.3125 -1.234375 L 3.3125 -7.109375 L 2.171875 -7.109375 C 1.960938 -7.109375 1.8125 -7.15625 1.71875 -7.25 C 1.632812 -7.34375 1.59375 -7.5 1.59375 -7.71875 C 1.59375 -7.945312 1.632812 -8.109375 1.71875 -8.203125 C 1.8125 -8.296875 1.960938 -8.34375 2.171875 -8.34375 L 4 -8.34375 C 4.207031 -8.34375 4.351562 -8.296875 4.4375 -8.203125 C 4.53125 -8.109375 4.578125 -7.945312 4.578125 -7.71875 L 4.578125 -5.90625 C 4.867188 -6.4375 5.21875 -6.898438 5.625 -7.296875 C 6.03125 -7.691406 6.460938 -7.992188 6.921875 -8.203125 C 7.390625 -8.421875 7.847656 -8.53125 8.296875 -8.53125 Z M 8.296875 -8.53125 "/></g></g><g transform="translate(226.645548, 54.974929)"><g><path d="M 5.578125 -8.53125 C 6.710938 -8.53125 7.5625 -8.273438 8.125 -7.765625 C 8.6875 -7.265625 8.96875 -6.519531 8.96875 -5.53125 L 8.96875 -1.9375 C 8.96875 -1.46875 9.164062 -1.234375 9.5625 -1.234375 L 9.890625 -1.234375 C 10.085938 -1.234375 10.226562 -1.1875 10.3125 -1.09375 C 10.40625 -1 10.453125 -0.835938 10.453125 -0.609375 C 10.453125 -0.390625 10.40625 -0.234375 10.3125 -0.140625 C 10.226562 -0.046875 10.085938 0 9.890625 0 L 9.3125 0 C 8.914062 0 8.578125 -0.0976562 8.296875 -0.296875 C 8.015625 -0.492188 7.832031 -0.78125 7.75 -1.15625 C 7.257812 -0.71875 6.722656 -0.378906 6.140625 -0.140625 C 5.566406 0.0859375 4.960938 0.203125 4.328125 0.203125 C 3.710938 0.203125 3.171875 0.0976562 2.703125 -0.109375 C 2.242188 -0.316406 1.878906 -0.617188 1.609375 -1.015625 C 1.347656 -1.410156 1.21875 -1.882812 1.21875 -2.4375 C 1.21875 -3.382812 1.554688 -4.082031 2.234375 -4.53125 C 2.921875 -4.988281 3.800781 -5.21875 4.875 -5.21875 C 5.832031 -5.21875 6.75 -5.066406 7.625 -4.765625 L 7.625 -5.53125 C 7.625 -6.113281 7.457031 -6.539062 7.125 -6.8125 C 6.800781 -7.09375 6.273438 -7.234375 5.546875 -7.234375 C 5.085938 -7.234375 4.613281 -7.164062 4.125 -7.03125 C 3.644531 -6.90625 3.1875 -6.734375 2.75 -6.515625 C 2.644531 -6.460938 2.550781 -6.4375 2.46875 -6.4375 C 2.269531 -6.4375 2.101562 -6.582031 1.96875 -6.875 C 1.90625 -7.007812 1.875 -7.128906 1.875 -7.234375 C 1.875 -7.441406 1.984375 -7.601562 2.203125 -7.71875 C 2.703125 -7.976562 3.242188 -8.175781 3.828125 -8.3125 C 4.410156 -8.457031 4.992188 -8.53125 5.578125 -8.53125 Z M 4.890625 -3.953125 C 4.191406 -3.953125 3.640625 -3.832031 3.234375 -3.59375 C 2.835938 -3.351562 2.640625 -2.976562 2.640625 -2.46875 C 2.640625 -2.03125 2.789062 -1.6875 3.09375 -1.4375 C 3.40625 -1.195312 3.832031 -1.078125 4.375 -1.078125 C 5.570312 -1.078125 6.65625 -1.570312 7.625 -2.5625 L 7.625 -3.546875 C 7.207031 -3.679688 6.765625 -3.78125 6.296875 -3.84375 C 5.828125 -3.914062 5.359375 -3.953125 4.890625 -3.953125 Z M 4.890625 -3.953125 "/></g></g><g transform="translate(237.726978, 54.974929)"><g><path d="M 4.140625 -10.90625 C 4.378906 -10.90625 4.550781 -10.859375 4.65625 -10.765625 C 4.757812 -10.679688 4.8125 -10.535156 4.8125 -10.328125 L 4.8125 -7.625 L 8.515625 -7.625 C 8.722656 -7.625 8.867188 -7.578125 8.953125 -7.484375 C 9.046875 -7.390625 9.09375 -7.226562 9.09375 -7 C 9.09375 -6.78125 9.046875 -6.625 8.953125 -6.53125 C 8.867188 -6.4375 8.722656 -6.390625 8.515625 -6.390625 L 4.8125 -6.390625 L 4.8125 -3.109375 C 4.8125 -2.421875 4.929688 -1.914062 5.171875 -1.59375 C 5.410156 -1.28125 5.820312 -1.125 6.40625 -1.125 C 6.8125 -1.125 7.234375 -1.203125 7.671875 -1.359375 C 8.117188 -1.523438 8.550781 -1.742188 8.96875 -2.015625 C 9.050781 -2.078125 9.144531 -2.109375 9.25 -2.109375 C 9.457031 -2.109375 9.632812 -1.96875 9.78125 -1.6875 C 9.851562 -1.53125 9.890625 -1.394531 9.890625 -1.28125 C 9.890625 -1.09375 9.789062 -0.9375 9.59375 -0.8125 C 9.125 -0.519531 8.597656 -0.273438 8.015625 -0.078125 C 7.441406 0.109375 6.90625 0.203125 6.40625 0.203125 C 5.382812 0.203125 4.632812 -0.0625 4.15625 -0.59375 C 3.6875 -1.132812 3.453125 -1.929688 3.453125 -2.984375 L 3.453125 -6.390625 L 1.625 -6.390625 C 1.414062 -6.390625 1.269531 -6.4375 1.1875 -6.53125 C 1.101562 -6.625 1.0625 -6.78125 1.0625 -7 C 1.0625 -7.226562 1.101562 -7.390625 1.1875 -7.484375 C 1.269531 -7.578125 1.414062 -7.625 1.625 -7.625 L 3.453125 -7.625 L 3.453125 -10.328125 C 3.453125 -10.535156 3.503906 -10.679688 3.609375 -10.765625 C 3.710938 -10.859375 3.890625 -10.90625 4.140625 -10.90625 Z M 4.140625 -10.90625 "/></g></g><g transform="translate(248.808408, 54.974929)"><g><path d="M 5.625 -8.53125 C 6.5 -8.53125 7.242188 -8.351562 7.859375 -8 C 8.472656 -7.65625 8.945312 -7.171875 9.28125 -6.546875 C 9.613281 -5.921875 9.800781 -5.203125 9.84375 -4.390625 C 9.84375 -4.191406 9.796875 -4.046875 9.703125 -3.953125 C 9.617188 -3.867188 9.476562 -3.828125 9.28125 -3.828125 L 2.75 -3.828125 C 2.789062 -2.929688 3.054688 -2.253906 3.546875 -1.796875 C 4.035156 -1.335938 4.726562 -1.109375 5.625 -1.109375 C 6.175781 -1.109375 6.722656 -1.175781 7.265625 -1.3125 C 7.804688 -1.457031 8.28125 -1.648438 8.6875 -1.890625 C 8.789062 -1.941406 8.882812 -1.96875 8.96875 -1.96875 C 9.175781 -1.96875 9.347656 -1.804688 9.484375 -1.484375 C 9.535156 -1.359375 9.5625 -1.242188 9.5625 -1.140625 C 9.5625 -0.898438 9.429688 -0.71875 9.171875 -0.59375 C 8.703125 -0.351562 8.148438 -0.160156 7.515625 -0.015625 C 6.890625 0.128906 6.257812 0.203125 5.625 0.203125 C 4.71875 0.203125 3.941406 0.03125 3.296875 -0.3125 C 2.648438 -0.664062 2.15625 -1.171875 1.8125 -1.828125 C 1.476562 -2.484375 1.3125 -3.265625 1.3125 -4.171875 C 1.3125 -5.023438 1.492188 -5.785156 1.859375 -6.453125 C 2.234375 -7.117188 2.742188 -7.628906 3.390625 -7.984375 C 4.046875 -8.347656 4.789062 -8.53125 5.625 -8.53125 Z M 5.625 -7.234375 C 4.882812 -7.234375 4.269531 -7.039062 3.78125 -6.65625 C 3.300781 -6.28125 2.984375 -5.757812 2.828125 -5.09375 L 8.34375 -5.09375 C 8.21875 -5.789062 7.925781 -6.320312 7.46875 -6.6875 C 7.019531 -7.050781 6.40625 -7.234375 5.625 -7.234375 Z M 5.625 -7.234375 "/></g></g><g transform="translate(259.889838, 54.974929)"><g><path d="M 5.046875 -8.53125 C 5.640625 -8.53125 6.179688 -8.398438 6.671875 -8.140625 C 7.171875 -7.878906 7.613281 -7.5 8 -7 L 8 -7.71875 C 8 -7.945312 8.039062 -8.109375 8.125 -8.203125 C 8.21875 -8.296875 8.363281 -8.34375 8.5625 -8.34375 L 10 -8.34375 C 10.207031 -8.34375 10.351562 -8.296875 10.4375 -8.203125 C 10.519531 -8.109375 10.5625 -7.945312 10.5625 -7.71875 C 10.5625 -7.5 10.519531 -7.34375 10.4375 -7.25 C 10.351562 -7.15625 10.207031 -7.109375 10 -7.109375 L 9.265625 -7.109375 L 9.265625 0.265625 C 9.265625 0.984375 9.109375 1.597656 8.796875 2.109375 C 8.492188 2.628906 8.050781 3.023438 7.46875 3.296875 C 6.894531 3.566406 6.203125 3.703125 5.390625 3.703125 C 4.816406 3.703125 4.234375 3.648438 3.640625 3.546875 C 3.054688 3.453125 2.507812 3.3125 2 3.125 C 1.757812 3.039062 1.640625 2.878906 1.640625 2.640625 C 1.640625 2.546875 1.664062 2.425781 1.71875 2.28125 C 1.820312 1.945312 1.992188 1.78125 2.234375 1.78125 C 2.296875 1.78125 2.359375 1.796875 2.421875 1.828125 C 2.890625 1.992188 3.382812 2.125 3.90625 2.21875 C 4.425781 2.3125 4.921875 2.359375 5.390625 2.359375 C 6.222656 2.359375 6.847656 2.160156 7.265625 1.765625 C 7.691406 1.378906 7.90625 0.84375 7.90625 0.15625 L 7.90625 -1.65625 C 7.15625 -0.71875 6.203125 -0.25 5.046875 -0.25 C 4.296875 -0.25 3.625 -0.414062 3.03125 -0.75 C 2.445312 -1.082031 1.984375 -1.5625 1.640625 -2.1875 C 1.304688 -2.8125 1.140625 -3.546875 1.140625 -4.390625 C 1.140625 -5.234375 1.304688 -5.96875 1.640625 -6.59375 C 1.984375 -7.21875 2.445312 -7.695312 3.03125 -8.03125 C 3.625 -8.363281 4.296875 -8.53125 5.046875 -8.53125 Z M 5.140625 -7.203125 C 4.597656 -7.203125 4.132812 -7.082031 3.75 -6.84375 C 3.363281 -6.601562 3.070312 -6.269531 2.875 -5.84375 C 2.675781 -5.425781 2.578125 -4.941406 2.578125 -4.390625 C 2.578125 -3.847656 2.675781 -3.363281 2.875 -2.9375 C 3.070312 -2.507812 3.363281 -2.175781 3.75 -1.9375 C 4.132812 -1.707031 4.597656 -1.59375 5.140625 -1.59375 C 5.671875 -1.59375 6.144531 -1.703125 6.5625 -1.921875 C 6.976562 -2.140625 7.304688 -2.460938 7.546875 -2.890625 C 7.785156 -3.316406 7.90625 -3.816406 7.90625 -4.390625 C 7.90625 -4.972656 7.785156 -5.472656 7.546875 -5.890625 C 7.304688 -6.316406 6.976562 -6.640625 6.5625 -6.859375 C 6.144531 -7.085938 5.671875 -7.203125 5.140625 -7.203125 Z M 5.140625 -7.203125 "/></g></g><g transform="translate(270.971268, 54.974929)"><g><path d="M 10.0625 -8.34375 C 10.269531 -8.34375 10.414062 -8.296875 10.5 -8.203125 C 10.582031 -8.109375 10.625 -7.945312 10.625 -7.71875 C 10.625 -7.5 10.582031 -7.34375 10.5 -7.25 C 10.414062 -7.15625 10.269531 -7.109375 10.0625 -7.109375 L 9.5 -7.109375 L 5.8125 0.453125 C 5.414062 1.253906 5.03125 1.882812 4.65625 2.34375 C 4.289062 2.800781 3.875 3.132812 3.40625 3.34375 C 2.9375 3.5625 2.367188 3.679688 1.703125 3.703125 C 1.492188 3.703125 1.332031 3.644531 1.21875 3.53125 C 1.101562 3.425781 1.046875 3.234375 1.046875 2.953125 C 1.046875 2.554688 1.207031 2.351562 1.53125 2.34375 C 2.101562 2.3125 2.554688 2.210938 2.890625 2.046875 C 3.234375 1.890625 3.546875 1.613281 3.828125 1.21875 C 4.117188 0.820312 4.472656 0.207031 4.890625 -0.625 L 1.59375 -7.109375 L 1.015625 -7.109375 C 0.816406 -7.109375 0.671875 -7.15625 0.578125 -7.25 C 0.492188 -7.34375 0.453125 -7.5 0.453125 -7.71875 C 0.453125 -7.945312 0.492188 -8.109375 0.578125 -8.203125 C 0.671875 -8.296875 0.816406 -8.34375 1.015625 -8.34375 L 4.21875 -8.34375 C 4.414062 -8.34375 4.554688 -8.296875 4.640625 -8.203125 C 4.734375 -8.109375 4.78125 -7.945312 4.78125 -7.71875 C 4.78125 -7.5 4.734375 -7.34375 4.640625 -7.25 C 4.554688 -7.15625 4.414062 -7.109375 4.21875 -7.109375 L 3.0625 -7.109375 L 5.609375 -2.046875 L 8.03125 -7.109375 L 7.234375 -7.109375 C 7.023438 -7.109375 6.875 -7.15625 6.78125 -7.25 C 6.695312 -7.34375 6.65625 -7.5 6.65625 -7.71875 C 6.65625 -7.945312 6.695312 -8.109375 6.78125 -8.203125 C 6.875 -8.296875 7.023438 -8.34375 7.234375 -8.34375 Z M 10.0625 -8.34375 "/></g></g></g><path fill="#ffffff" d="M 238.476562 64.664062 C 238.476562 64.871094 238.402344 65.046875 238.257812 65.191406 C 238.109375 65.339844 237.933594 65.410156 237.726562 65.410156 C 237.519531 65.410156 237.34375 65.339844 237.199219 65.191406 C 237.050781 65.046875 236.976562 64.871094 236.976562 64.664062 C 236.976562 64.457031 237.050781 64.277344 237.199219 64.132812 C 237.34375 63.984375 237.519531 63.914062 237.726562 63.914062 C 237.933594 63.914062 238.109375 63.984375 238.257812 64.132812 C 238.402344 64.277344 238.476562 64.457031 238.476562 64.664062 Z M 238.476562 67.660156 C 238.476562 67.867188 238.402344 68.042969 238.257812 68.191406 C 238.109375 68.335938 237.933594 68.410156 237.726562 68.410156 C 237.519531 68.410156 237.34375 68.335938 237.199219 68.191406 C 237.050781 68.042969 236.976562 67.867188 236.976562 67.660156 C 236.976562 67.453125 237.050781 67.277344 237.199219 67.128906 C 237.34375 66.984375 237.519531 66.910156 237.726562 66.910156 C 237.933594 66.910156 238.109375 66.984375 238.257812 67.128906 C 238.402344 67.277344 238.476562 67.453125 238.476562 67.660156 Z M 238.476562 70.660156 C 238.476562 70.867188 238.402344 71.042969 238.257812 71.191406 C 238.109375 71.335938 237.933594 71.410156 237.726562 71.410156 C 237.519531 71.410156 237.34375 71.335938 237.199219 71.191406 C 237.050781 71.042969 236.976562 70.867188 236.976562 70.660156 C 236.976562 70.453125 237.050781 70.277344 237.199219 70.128906 C 237.34375 69.984375 237.519531 69.910156 237.726562 69.910156 C 237.933594 69.910156 238.109375 69.984375 238.257812 70.128906 C 238.402344 70.277344 238.476562 70.453125 238.476562 70.660156 Z M 238.476562 73.65625 C 238.476562 73.863281 238.402344 74.042969 238.257812 74.1875 C 238.109375 74.335938 237.933594 74.40625 237.726562 74.40625 C 237.519531 74.40625 237.34375 74.335938 237.199219 74.1875 C 237.050781 74.042969 236.976562 73.863281 236.976562 73.65625 C 236.976562 73.449219 237.050781 73.273438 237.199219 73.128906 C 237.34375 72.980469 237.519531 72.910156 237.726562 72.910156 C 237.933594 72.910156 238.109375 72.980469 238.257812 73.128906 C 238.402344 73.273438 238.476562 73.449219 238.476562 73.65625 Z M 238.476562 76.65625 C 238.476562 76.863281 238.402344 77.039062 238.257812 77.1875 C 238.109375 77.332031 237.933594 77.40625 237.726562 77.40625 C 237.519531 77.40625 237.34375 77.332031 237.199219 77.1875 C 237.050781 77.039062 236.976562 76.863281 236.976562 76.65625 C 236.976562 76.449219 237.050781 76.273438 237.199219 76.125 C 237.34375 75.980469 237.519531 75.90625 237.726562 75.90625 C 237.933594 75.90625 238.109375 75.980469 238.257812 76.125 C 238.402344 76.273438 238.476562 76.449219 238.476562 76.65625 Z M 238.476562 76.65625 " fill-opacity="1" fill-rule="nonzero"/></svg>